<svg width="416" height="50" viewBox="0 0 416 50" fill="none" xmlns="http://www.w3.org/2000/svg">
<g filter="url(#filter0_d_39_2)">
<path d="M15.9395 25.79L4.0498 2.01074H21.457L25.3389 9.99414L29.3428 2.01074H43.8936L31.7598 25.79V41H15.9395V25.79ZM75.1436 16.8301C75.1436 14.0794 73.8252 12.7041 71.1885 12.7041C70.0492 12.7041 68.7796 13.4202 67.3799 14.8525C65.2803 17.0173 63.8154 19.597 62.9854 22.5918C62.7249 23.5358 62.5947 24.4066 62.5947 25.2041C62.5947 27.9059 63.9619 29.2568 66.6963 29.2568C67.7868 29.2731 69.0319 28.5488 70.4316 27.084C72.4661 24.9355 73.9066 22.3314 74.7529 19.2715C75.0133 18.3275 75.1436 17.5137 75.1436 16.8301ZM68.4785 41.9521C62.7005 41.9521 57.6875 40.0804 53.4395 36.3369C52.0885 35.1488 50.9167 33.7897 49.9238 32.2598C47.8079 29.0208 46.75 25.3994 46.75 21.3955C46.75 17.3753 47.7266 13.819 49.6797 10.7266C51.6328 7.63411 54.2533 5.22526 57.541 3.5C60.8288 1.77474 64.2305 0.912109 67.7461 0.912109C71.278 0.912109 74.3867 1.38411 77.0723 2.32812C79.7578 3.27214 82.0934 4.63118 84.0791 6.40527C86.0811 8.16309 87.6517 10.3197 88.791 12.875C89.9303 15.4303 90.5 18.3193 90.5 21.542C90.5 25.5459 89.4827 29.1104 87.4482 32.2354C85.4137 35.3441 82.7038 37.7448 79.3184 39.4375C75.9329 41.1139 72.3197 41.9521 68.4785 41.9521ZM105.295 25.79L93.4053 2.01074H110.812L114.694 9.99414L118.698 2.01074H133.249L121.115 25.79V41H105.295V25.79ZM164.499 16.8301C164.499 14.0794 163.181 12.7041 160.544 12.7041C159.405 12.7041 158.135 13.4202 156.735 14.8525C154.636 17.0173 153.171 19.597 152.341 22.5918C152.08 23.5358 151.95 24.4066 151.95 25.2041C151.95 27.9059 153.317 29.2568 156.052 29.2568C157.142 29.2731 158.387 28.5488 159.787 27.084C161.822 24.9355 163.262 22.3314 164.108 19.2715C164.369 18.3275 164.499 17.5137 164.499 16.8301ZM157.834 41.9521C152.056 41.9521 147.043 40.0804 142.795 36.3369C141.444 35.1488 140.272 33.7897 139.279 32.2598C137.163 29.0208 136.105 25.3994 136.105 21.3955C136.105 17.3753 137.082 13.819 139.035 10.7266C140.988 7.63411 143.609 5.22526 146.896 3.5C150.184 1.77474 153.586 0.912109 157.102 0.912109C160.633 0.912109 163.742 1.38411 166.428 2.32812C169.113 3.27214 171.449 4.63118 173.435 6.40527C175.437 8.16309 177.007 10.3197 178.146 12.875C179.286 15.4303 179.855 18.3193 179.855 21.542C179.855 25.5459 178.838 29.1104 176.804 32.2354C174.769 35.3441 172.059 37.7448 168.674 39.4375C165.288 41.1139 161.675 41.9521 157.834 41.9521ZM228.391 22.4453L232.126 22.4209C233.037 22.4209 233.566 22.4128 233.713 22.3965V40.5117C228 41.472 223.443 41.9521 220.041 41.9521C216.639 41.9521 213.449 41.472 210.471 40.5117C207.492 39.5352 204.912 38.1517 202.731 36.3613C200.55 34.571 198.841 32.4062 197.604 29.8672C196.368 27.3118 195.749 24.4554 195.749 21.2979C195.749 15.0967 198.215 10.1488 203.146 6.4541C208.094 2.75944 214.434 0.912109 222.165 0.912109C225.957 0.912109 228.96 1.31901 231.174 2.13281C231.564 2.2793 231.776 2.35254 231.809 2.35254V14.1445C229.416 13.4121 227.219 13.0459 225.217 13.0459C221.571 13.0459 218.715 14.0143 216.647 15.9512C214.58 17.888 213.555 20.1178 213.571 22.6406C213.571 24.3984 214.051 25.8389 215.012 26.9619C215.988 28.085 217.323 28.6465 219.016 28.6465C219.927 28.6465 220.627 28.5326 221.115 28.3047C221.148 27.7025 221.164 26.9294 221.164 25.9854V22.4453C223.573 22.4453 225.982 22.4453 228.391 22.4453ZM237.106 41L256.491 3.98828C257.159 2.66992 258.387 1.79102 260.178 1.35156C260.699 1.22135 261.341 1.15625 262.106 1.15625C262.871 1.15625 263.701 1.37598 264.597 1.81543C265.508 2.23861 266.224 2.91406 266.745 3.8418L287.546 41H267.746L266.208 37.1426H255.661L254.343 41H237.106ZM256.857 29.4033H264.743L261.008 18.8564L256.857 29.4033ZM291.257 2.01074H296.848L315.695 19.7109L335.056 2.01074H340.451V41H324.411V28.3535L314.45 39.291L304.758 28.6465V41H291.257V2.01074ZM346.481 2.01074H374.582V13.2412H361.667V16.4395H374.533V26.0098H361.667V29.6963H375.437V41H346.481V2.01074ZM395.236 41.9521C387.928 41.9521 383.078 41.0488 380.686 39.2422V28.0605C380.751 28.0768 380.987 28.1501 381.394 28.2803C381.817 28.4105 382.346 28.5732 382.98 28.7686C384.462 29.2243 386.016 29.6556 387.644 30.0625C389.287 30.4531 390.606 30.6484 391.599 30.6484C393.226 30.6484 394.04 30.152 394.04 29.1592C394.04 28.3942 393.34 27.5804 391.94 26.7178C391.306 26.3271 390.581 25.9202 389.768 25.4971C388.97 25.0739 388.156 24.6019 387.326 24.0811C385.292 22.8278 383.656 21.363 382.419 19.6865C381.198 18.0101 380.588 15.8942 380.588 13.3389C380.588 7.75618 383.534 4.00456 389.426 2.08398C391.818 1.30273 394.577 0.912109 397.702 0.912109C400.843 0.912109 404.123 1.27018 407.541 1.98633C408.241 2.13281 408.705 2.23861 408.933 2.30371V13.5098C404.506 12.5658 401.324 12.0938 399.387 12.0938C398.638 12.0938 398.076 12.224 397.702 12.4844C397.328 12.7448 397.141 13.0378 397.141 13.3633C397.141 13.6888 397.303 14.0306 397.629 14.3887C397.954 14.7305 398.516 15.0804 399.313 15.4385C400.111 15.7803 401.039 16.2035 402.097 16.708C403.171 17.1963 404.172 17.7253 405.1 18.2949C409.266 20.8503 411.35 24.3415 411.35 28.7686C411.35 32.9678 409.934 36.2148 407.102 38.5098C404.237 40.7884 400.282 41.9359 395.236 41.9521Z" fill="white"/>
<path d="M15.9395 25.79H21.9395V24.3736L21.306 23.1068L15.9395 25.79ZM4.0498 2.01074V-3.98926H-5.6584L-1.31676 4.69402L4.0498 2.01074ZM21.457 2.01074L26.853 -0.61297L25.2113 -3.98926H21.457V2.01074ZM25.3389 9.99414L19.9429 12.6179L25.2556 23.5439L30.7021 12.684L25.3389 9.99414ZM29.3428 2.01074V-3.98926H25.6396L23.9795 -0.679098L29.3428 2.01074ZM43.8936 2.01074L49.238 4.73783L53.6911 -3.98926H43.8936V2.01074ZM31.7598 25.79L26.4153 23.063L25.7598 24.3477V25.79H31.7598ZM31.7598 41V47H37.7598V41H31.7598ZM15.9395 41H9.93945V47H15.9395V41ZM21.306 23.1068L9.41637 -0.672539L-1.31676 4.69402L10.5729 28.4733L21.306 23.1068ZM4.0498 8.01074H21.457V-3.98926H4.0498V8.01074ZM16.0611 4.63445L19.9429 12.6179L30.7348 7.37043L26.853 -0.61297L16.0611 4.63445ZM30.7021 12.684L34.7061 4.70058L23.9795 -0.679098L19.9756 7.3043L30.7021 12.684ZM29.3428 8.01074H43.8936V-3.98926H29.3428V8.01074ZM38.5491 -0.716346L26.4153 23.063L37.1042 28.5171L49.238 4.73783L38.5491 -0.716346ZM25.7598 25.79V41H37.7598V25.79H25.7598ZM31.7598 35H15.9395V47H31.7598V35ZM21.9395 41V25.79H9.93945V41H21.9395ZM67.3799 14.8525L63.0888 10.6589L63.0808 10.667L63.073 10.6752L67.3799 14.8525ZM62.9854 22.5918L57.2033 20.9892L57.2014 20.9962L62.9854 22.5918ZM66.6963 29.2568L66.7858 23.2575L66.7411 23.2568H66.6963V29.2568ZM70.4316 27.084L74.7696 31.2291L74.7789 31.2194L74.7882 31.2095L70.4316 27.084ZM74.7529 19.2715L80.5358 20.871L80.5369 20.8671L74.7529 19.2715ZM53.4395 36.3369L57.4063 31.8354L57.402 31.8316L53.4395 36.3369ZM49.9238 32.2598L54.9569 28.9936L54.952 28.9859L54.947 28.9783L49.9238 32.2598ZM84.0791 6.40527L80.0815 10.8796L80.1008 10.8968L80.1203 10.9139L84.0791 6.40527ZM87.4482 32.2354L92.4687 35.521L92.4726 35.515L92.4765 35.509L87.4482 32.2354ZM79.3184 39.4375L81.9809 44.8144L81.9913 44.8092L82.0016 44.8041L79.3184 39.4375ZM81.1436 16.8301C81.1436 14.5919 80.611 11.8003 78.4862 9.58361C76.3159 7.31956 73.4979 6.7041 71.1885 6.7041V18.7041C71.5158 18.7041 70.6753 18.7763 69.8234 17.8876C69.0169 17.0462 69.1436 16.3177 69.1436 16.8301H81.1436ZM71.1885 6.7041C67.5731 6.7041 64.8249 8.88246 63.0888 10.6589L71.671 19.0461C71.8813 18.8309 72.0473 18.6833 72.1673 18.5867C72.2883 18.4893 72.3429 18.4597 72.3298 18.4671C72.3108 18.4778 71.9015 18.7041 71.1885 18.7041V6.7041ZM63.073 10.6752C60.252 13.5836 58.2933 17.0569 57.2033 20.9892L68.7674 24.1944C69.3376 22.1371 70.3086 20.4509 71.6868 19.0299L63.073 10.6752ZM57.2014 20.9962C56.8289 22.3467 56.5947 23.7613 56.5947 25.2041H68.5947C68.5947 25.0518 68.621 24.7249 68.7693 24.1874L57.2014 20.9962ZM56.5947 25.2041C56.5947 27.4982 57.1817 30.3168 59.403 32.5116C61.611 34.6934 64.4222 35.2568 66.6963 35.2568V23.2568C66.236 23.2568 66.9964 23.1448 67.8373 23.9757C68.6914 24.8196 68.5947 25.6118 68.5947 25.2041H56.5947ZM66.6067 35.2562C70.331 35.3118 73.1166 32.959 74.7696 31.2291L66.0937 22.9388C65.8772 23.1654 65.7073 23.3205 65.5851 23.4216C65.4616 23.5239 65.4099 23.5518 65.4311 23.5395C65.4566 23.5246 65.9445 23.2449 66.7858 23.2575L66.6067 35.2562ZM74.7882 31.2095C77.5464 28.2969 79.4474 24.806 80.5358 20.871L68.9701 17.672C68.3658 19.8568 67.3858 21.5742 66.0751 22.9584L74.7882 31.2095ZM80.5369 20.8671C80.8844 19.6073 81.1436 18.2299 81.1436 16.8301H69.1436C69.1436 16.7977 69.146 16.8503 69.1213 17.0052C69.0968 17.1578 69.051 17.3787 68.969 17.6759L80.5369 20.8671ZM68.4785 35.9521C64.1282 35.9521 60.5341 34.5917 57.4063 31.8354L49.4726 40.8385C54.8409 45.5691 61.2728 47.9521 68.4785 47.9521V35.9521ZM57.402 31.8316C56.4686 31.0106 55.6554 30.0699 54.9569 28.9936L44.8907 35.5259C46.1779 37.5095 47.7085 39.2869 49.4769 40.8423L57.402 31.8316ZM54.947 28.9783C53.4916 26.7505 52.75 24.2769 52.75 21.3955H40.75C40.75 26.5219 42.1243 31.2912 44.9007 35.5412L54.947 28.9783ZM52.75 21.3955C52.75 18.393 53.4644 15.9701 54.7526 13.9305L44.6068 7.5226C41.9887 11.6679 40.75 16.3577 40.75 21.3955H52.75ZM54.7526 13.9305C56.1338 11.7437 57.9601 10.056 60.329 8.81293L54.753 -1.81293C50.5464 0.394534 47.1319 3.52453 44.6068 7.5226L54.7526 13.9305ZM60.329 8.81293C62.8065 7.51286 65.2564 6.91211 67.7461 6.91211V-5.08789C63.2046 -5.08789 58.8511 -3.96338 54.753 -1.81293L60.329 8.81293ZM67.7461 6.91211C70.7571 6.91211 73.1691 7.31599 75.0825 7.9886L79.062 -3.33235C75.6043 -4.54777 71.7989 -5.08789 67.7461 -5.08789V6.91211ZM75.0825 7.9886C77.0794 8.69052 78.7207 9.66373 80.0815 10.8796L88.0767 1.93095C85.4662 -0.401356 82.4362 -2.14625 79.062 -3.33235L75.0825 7.9886ZM80.1203 10.9139C81.4397 12.0724 82.5059 13.5125 83.311 15.3183L94.271 10.4317C92.7975 7.12685 90.7224 4.25377 88.0379 1.89663L80.1203 10.9139ZM83.311 15.3183C84.0593 16.9965 84.5 19.0341 84.5 21.542H96.5C96.5 17.6046 95.8014 13.8642 94.271 10.4317L83.311 15.3183ZM84.5 21.542C84.5 24.4733 83.7731 26.8833 82.42 28.9617L92.4765 35.509C95.1924 31.3374 96.5 26.6185 96.5 21.542H84.5ZM82.4278 28.9497C80.9859 31.153 79.0898 32.8436 76.6351 34.0709L82.0016 44.8041C86.3178 42.646 89.8416 39.5352 92.4687 35.521L82.4278 28.9497ZM76.6558 34.0606C74.1124 35.3201 71.4121 35.9521 68.4785 35.9521V47.9521C73.2273 47.9521 77.7535 46.9078 81.9809 44.8144L76.6558 34.0606ZM105.295 25.79H111.295V24.3736L110.661 23.1068L105.295 25.79ZM93.4053 2.01074V-3.98926H83.6971L88.0387 4.69402L93.4053 2.01074ZM110.812 2.01074L116.208 -0.61297L114.567 -3.98926H110.812V2.01074ZM114.694 9.99414L109.298 12.6179L114.611 23.5439L120.058 12.684L114.694 9.99414ZM118.698 2.01074V-3.98926H114.995L113.335 -0.679098L118.698 2.01074ZM133.249 2.01074L138.593 4.73783L143.047 -3.98926H133.249V2.01074ZM121.115 25.79L115.771 23.063L115.115 24.3477V25.79H121.115ZM121.115 41V47H127.115V41H121.115ZM105.295 41H99.2949V47H105.295V41ZM110.661 23.1068L98.7718 -0.672539L88.0387 4.69402L99.9284 28.4733L110.661 23.1068ZM93.4053 8.01074H110.812V-3.98926H93.4053V8.01074ZM105.417 4.63445L109.298 12.6179L120.09 7.37043L116.208 -0.61297L105.417 4.63445ZM120.058 12.684L124.062 4.70058L113.335 -0.679098L109.331 7.3043L120.058 12.684ZM118.698 8.01074H133.249V-3.98926H118.698V8.01074ZM127.905 -0.716346L115.771 23.063L126.46 28.5171L138.593 4.73783L127.905 -0.716346ZM115.115 25.79V41H127.115V25.79H115.115ZM121.115 35H105.295V47H121.115V35ZM111.295 41V25.79H99.2949V41H111.295ZM156.735 14.8525L152.444 10.6589L152.436 10.667L152.428 10.6752L156.735 14.8525ZM152.341 22.5918L146.559 20.9892L146.557 20.9962L152.341 22.5918ZM156.052 29.2568L156.141 23.2575L156.097 23.2568H156.052V29.2568ZM159.787 27.084L164.125 31.2291L164.134 31.2194L164.144 31.2095L159.787 27.084ZM164.108 19.2715L169.891 20.871L169.892 20.8671L164.108 19.2715ZM142.795 36.3369L146.762 31.8354L146.757 31.8316L142.795 36.3369ZM139.279 32.2598L144.312 28.9936L144.307 28.9859L144.302 28.9783L139.279 32.2598ZM173.435 6.40527L169.437 10.8796L169.456 10.8968L169.476 10.9139L173.435 6.40527ZM176.804 32.2354L181.824 35.521L181.828 35.515L181.832 35.509L176.804 32.2354ZM168.674 39.4375L171.336 44.8144L171.347 44.8092L171.357 44.8041L168.674 39.4375ZM170.499 16.8301C170.499 14.5919 169.967 11.8003 167.842 9.58361C165.671 7.31956 162.853 6.7041 160.544 6.7041V18.7041C160.871 18.7041 160.031 18.7763 159.179 17.8876C158.372 17.0462 158.499 16.3177 158.499 16.8301H170.499ZM160.544 6.7041C156.929 6.7041 154.18 8.88246 152.444 10.6589L161.026 19.0461C161.237 18.8309 161.403 18.6833 161.523 18.5867C161.644 18.4893 161.698 18.4597 161.685 18.4671C161.666 18.4778 161.257 18.7041 160.544 18.7041V6.7041ZM152.428 10.6752C149.607 13.5836 147.649 17.0569 146.559 20.9892L158.123 24.1944C158.693 22.1371 159.664 20.4509 161.042 19.0299L152.428 10.6752ZM146.557 20.9962C146.184 22.3467 145.95 23.7613 145.95 25.2041H157.95C157.95 25.0518 157.976 24.7249 158.125 24.1874L146.557 20.9962ZM145.95 25.2041C145.95 27.4982 146.537 30.3168 148.758 32.5116C150.966 34.6934 153.778 35.2568 156.052 35.2568V23.2568C155.591 23.2568 156.352 23.1448 157.193 23.9757C158.047 24.8196 157.95 25.6118 157.95 25.2041H145.95ZM155.962 35.2562C159.686 35.3118 162.472 32.959 164.125 31.2291L155.449 22.9388C155.233 23.1654 155.063 23.3205 154.941 23.4216C154.817 23.5239 154.765 23.5518 154.787 23.5395C154.812 23.5246 155.3 23.2449 156.141 23.2575L155.962 35.2562ZM164.144 31.2095C166.902 28.2969 168.803 24.806 169.891 20.871L158.326 17.672C157.721 19.8568 156.741 21.5742 155.431 22.9584L164.144 31.2095ZM169.892 20.8671C170.24 19.6073 170.499 18.2299 170.499 16.8301H158.499C158.499 16.7977 158.502 16.8503 158.477 17.0052C158.452 17.1578 158.406 17.3787 158.324 17.6759L169.892 20.8671ZM157.834 35.9521C153.484 35.9521 149.89 34.5917 146.762 31.8354L138.828 40.8385C144.196 45.5691 150.628 47.9521 157.834 47.9521V35.9521ZM146.757 31.8316C145.824 31.0106 145.011 30.0699 144.312 28.9936L134.246 35.5259C135.533 37.5095 137.064 39.2869 138.832 40.8423L146.757 31.8316ZM144.302 28.9783C142.847 26.7505 142.105 24.2769 142.105 21.3955H130.105C130.105 26.5219 131.48 31.2912 134.256 35.5412L144.302 28.9783ZM142.105 21.3955C142.105 18.393 142.82 15.9701 144.108 13.9305L133.962 7.5226C131.344 11.6679 130.105 16.3577 130.105 21.3955H142.105ZM144.108 13.9305C145.489 11.7437 147.316 10.056 149.684 8.81293L144.109 -1.81293C139.902 0.394534 136.487 3.52453 133.962 7.5226L144.108 13.9305ZM149.684 8.81293C152.162 7.51286 154.612 6.91211 157.102 6.91211V-5.08789C152.56 -5.08789 148.207 -3.96338 144.109 -1.81293L149.684 8.81293ZM157.102 6.91211C160.113 6.91211 162.525 7.31599 164.438 7.9886L168.417 -3.33235C164.96 -4.54777 161.154 -5.08789 157.102 -5.08789V6.91211ZM164.438 7.9886C166.435 8.69052 168.076 9.66373 169.437 10.8796L177.432 1.93095C174.822 -0.401356 171.792 -2.14625 168.417 -3.33235L164.438 7.9886ZM169.476 10.9139C170.795 12.0724 171.861 13.5125 172.666 15.3183L183.626 10.4317C182.153 7.12685 180.078 4.25377 177.393 1.89663L169.476 10.9139ZM172.666 15.3183C173.415 16.9965 173.855 19.0341 173.855 21.542H185.855C185.855 17.6046 185.157 13.8642 183.626 10.4317L172.666 15.3183ZM173.855 21.542C173.855 24.4733 173.129 26.8833 171.775 28.9617L181.832 35.509C184.548 31.3374 185.855 26.6185 185.855 21.542H173.855ZM171.783 28.9497C170.341 31.153 168.445 32.8436 165.991 34.0709L171.357 44.8041C175.673 42.646 179.197 39.5352 181.824 35.521L171.783 28.9497ZM166.011 34.0606C163.468 35.3201 160.768 35.9521 157.834 35.9521V47.9521C162.583 47.9521 167.109 46.9078 171.336 44.8144L166.011 34.0606ZM228.391 22.4453V28.4453H228.41L228.43 28.4452L228.391 22.4453ZM232.126 22.4209V16.4209H232.106L232.087 16.421L232.126 22.4209ZM233.713 22.3965H239.713V15.6929L233.05 16.4332L233.713 22.3965ZM233.713 40.5117L234.707 46.4287L239.713 45.5873V40.5117H233.713ZM210.471 40.5117L208.601 46.2131L208.615 46.2177L208.63 46.2223L210.471 40.5117ZM197.604 29.8672L192.204 32.4815L192.207 32.4882L192.211 32.495L197.604 29.8672ZM203.146 6.4541L199.557 1.64652L199.549 1.6522L203.146 6.4541ZM231.174 2.13281L233.281 -3.48516L233.262 -3.49197L233.244 -3.49866L231.174 2.13281ZM231.809 2.35254H237.809V-3.64746H231.809V2.35254ZM231.809 14.1445L230.052 19.8817L237.809 22.2561V14.1445H231.809ZM216.647 15.9512L212.545 11.5729L216.647 15.9512ZM213.571 22.6406H219.571V22.6213L219.571 22.6019L213.571 22.6406ZM215.012 26.9619L210.452 30.8612L210.468 30.8802L210.484 30.899L215.012 26.9619ZM221.115 28.3047L223.653 33.7418L226.912 32.2206L227.106 28.6285L221.115 28.3047ZM221.164 22.4453V16.4453H215.164V22.4453H221.164ZM228.43 28.4452L232.165 28.4208L232.087 16.421L228.351 16.4454L228.43 28.4452ZM232.126 28.4209C232.823 28.4209 233.806 28.4231 234.375 28.3598L233.05 16.4332C233.179 16.4188 233.271 16.4135 233.288 16.4126C233.316 16.4109 233.328 16.4106 233.315 16.4111C233.288 16.412 233.225 16.4138 233.114 16.4155C232.894 16.4189 232.569 16.4209 232.126 16.4209V28.4209ZM227.713 22.3965V40.5117H239.713V22.3965H227.713ZM232.718 34.5947C227.14 35.5324 222.958 35.9521 220.041 35.9521V47.9521C223.928 47.9521 228.86 47.4116 234.707 46.4287L232.718 34.5947ZM220.041 35.9521C217.21 35.9521 214.646 35.5537 212.312 34.8012L208.63 46.2223C212.252 47.3903 216.068 47.9521 220.041 47.9521V35.9521ZM212.34 34.8103C209.99 34.0397 208.085 32.9931 206.538 31.7238L198.924 40.9989C201.74 43.3103 204.995 45.0306 208.601 46.2131L212.34 34.8103ZM206.538 31.7238C205.026 30.4818 203.858 29.0029 202.998 27.2394L192.211 32.495C193.825 35.8096 196.075 38.6601 198.924 40.9989L206.538 31.7238ZM203.005 27.2529C202.205 25.6002 201.749 23.6525 201.749 21.2979H189.749C189.749 25.2583 190.53 29.0235 192.204 32.4815L203.005 27.2529ZM201.749 21.2979C201.749 16.9722 203.336 13.8092 206.744 11.256L199.549 1.6522C193.094 6.48832 189.749 13.2212 189.749 21.2979H201.749ZM206.736 11.2617C210.411 8.51802 215.397 6.91211 222.165 6.91211V-5.08789C213.471 -5.08789 205.778 -2.99914 199.557 1.64652L206.736 11.2617ZM222.165 6.91211C225.627 6.91211 227.832 7.29696 229.103 7.76428L233.244 -3.49866C230.088 -4.65894 226.288 -5.08789 222.165 -5.08789V6.91211ZM229.067 7.75079C229.277 7.82952 229.484 7.90565 229.663 7.96752C229.745 7.9961 229.878 8.04121 230.027 8.08576C230.096 8.10665 230.234 8.14701 230.405 8.18759C230.491 8.20791 230.635 8.24019 230.814 8.27004C230.949 8.29256 231.325 8.35254 231.809 8.35254V-3.64746C232.074 -3.64746 232.29 -3.62967 232.43 -3.61509C232.576 -3.59975 232.698 -3.58143 232.787 -3.56668C232.959 -3.53797 233.095 -3.50741 233.171 -3.48938C233.323 -3.45337 233.436 -3.41989 233.475 -3.40815C233.562 -3.38191 233.611 -3.36426 233.588 -3.37231C233.555 -3.38368 233.461 -3.41741 233.281 -3.48516L229.067 7.75079ZM225.809 2.35254V14.1445H237.809V2.35254H225.809ZM233.565 8.40733C230.739 7.54221 227.941 7.0459 225.217 7.0459V19.0459C226.497 19.0459 228.093 19.282 230.052 19.8817L233.565 8.40733ZM225.217 7.0459C220.5 7.0459 216.016 8.32092 212.545 11.5729L220.75 20.3295C221.414 19.7077 222.642 19.0459 225.217 19.0459V7.0459ZM212.545 11.5729C209.423 14.4979 207.543 18.2697 207.571 22.6793L219.571 22.6019C219.567 21.966 219.738 21.2781 220.75 20.3295L212.545 11.5729ZM207.571 22.6406C207.571 25.5439 208.393 28.4533 210.452 30.8612L219.572 23.0626C219.585 23.0777 219.6 23.0985 219.612 23.1209C219.625 23.143 219.627 23.1527 219.623 23.1419C219.617 23.1214 219.571 22.9743 219.571 22.6406H207.571ZM210.484 30.899C212.764 33.5205 215.852 34.6465 219.016 34.6465V22.6465C218.835 22.6465 218.889 22.6179 219.072 22.6949C219.16 22.7321 219.255 22.7842 219.345 22.8502C219.435 22.9158 219.5 22.9792 219.539 23.0248L210.484 30.899ZM219.016 34.6465C220.278 34.6465 222.001 34.5123 223.653 33.7418L218.578 22.8676C218.777 22.7745 218.941 22.7196 219.051 22.6881C219.161 22.6564 219.234 22.6433 219.26 22.639C219.304 22.6319 219.235 22.6465 219.016 22.6465V34.6465ZM227.106 28.6285C227.147 27.8762 227.164 26.9845 227.164 25.9854H215.164C215.164 26.8742 215.148 27.5288 215.124 27.9808L227.106 28.6285ZM227.164 25.9854V22.4453H215.164V25.9854H227.164ZM221.164 28.4453C221.169 28.4453 221.173 28.4453 221.178 28.4453C221.183 28.4453 221.188 28.4453 221.192 28.4453C221.197 28.4453 221.202 28.4453 221.206 28.4453C221.211 28.4453 221.216 28.4453 221.221 28.4453C221.225 28.4453 221.23 28.4453 221.235 28.4453C221.239 28.4453 221.244 28.4453 221.249 28.4453C221.253 28.4453 221.258 28.4453 221.263 28.4453C221.268 28.4453 221.272 28.4453 221.277 28.4453C221.282 28.4453 221.286 28.4453 221.291 28.4453C221.296 28.4453 221.301 28.4453 221.305 28.4453C221.31 28.4453 221.315 28.4453 221.319 28.4453C221.324 28.4453 221.329 28.4453 221.333 28.4453C221.338 28.4453 221.343 28.4453 221.348 28.4453C221.352 28.4453 221.357 28.4453 221.362 28.4453C221.366 28.4453 221.371 28.4453 221.376 28.4453C221.38 28.4453 221.385 28.4453 221.39 28.4453C221.395 28.4453 221.399 28.4453 221.404 28.4453C221.409 28.4453 221.413 28.4453 221.418 28.4453C221.423 28.4453 221.428 28.4453 221.432 28.4453C221.437 28.4453 221.442 28.4453 221.446 28.4453C221.451 28.4453 221.456 28.4453 221.46 28.4453C221.465 28.4453 221.47 28.4453 221.475 28.4453C221.479 28.4453 221.484 28.4453 221.489 28.4453C221.493 28.4453 221.498 28.4453 221.503 28.4453C221.508 28.4453 221.512 28.4453 221.517 28.4453C221.522 28.4453 221.526 28.4453 221.531 28.4453C221.536 28.4453 221.54 28.4453 221.545 28.4453C221.55 28.4453 221.555 28.4453 221.559 28.4453C221.564 28.4453 221.569 28.4453 221.573 28.4453C221.578 28.4453 221.583 28.4453 221.587 28.4453C221.592 28.4453 221.597 28.4453 221.602 28.4453C221.606 28.4453 221.611 28.4453 221.616 28.4453C221.62 28.4453 221.625 28.4453 221.63 28.4453C221.635 28.4453 221.639 28.4453 221.644 28.4453C221.649 28.4453 221.653 28.4453 221.658 28.4453C221.663 28.4453 221.667 28.4453 221.672 28.4453C221.677 28.4453 221.682 28.4453 221.686 28.4453C221.691 28.4453 221.696 28.4453 221.7 28.4453C221.705 28.4453 221.71 28.4453 221.715 28.4453C221.719 28.4453 221.724 28.4453 221.729 28.4453C221.733 28.4453 221.738 28.4453 221.743 28.4453C221.747 28.4453 221.752 28.4453 221.757 28.4453C221.762 28.4453 221.766 28.4453 221.771 28.4453C221.776 28.4453 221.78 28.4453 221.785 28.4453C221.79 28.4453 221.795 28.4453 221.799 28.4453C221.804 28.4453 221.809 28.4453 221.813 28.4453C221.818 28.4453 221.823 28.4453 221.827 28.4453C221.832 28.4453 221.837 28.4453 221.842 28.4453C221.846 28.4453 221.851 28.4453 221.856 28.4453C221.86 28.4453 221.865 28.4453 221.87 28.4453C221.874 28.4453 221.879 28.4453 221.884 28.4453C221.889 28.4453 221.893 28.4453 221.898 28.4453C221.903 28.4453 221.907 28.4453 221.912 28.4453C221.917 28.4453 221.922 28.4453 221.926 28.4453C221.931 28.4453 221.936 28.4453 221.94 28.4453C221.945 28.4453 221.95 28.4453 221.954 28.4453C221.959 28.4453 221.964 28.4453 221.969 28.4453C221.973 28.4453 221.978 28.4453 221.983 28.4453C221.987 28.4453 221.992 28.4453 221.997 28.4453C222.002 28.4453 222.006 28.4453 222.011 28.4453C222.016 28.4453 222.02 28.4453 222.025 28.4453C222.03 28.4453 222.034 28.4453 222.039 28.4453C222.044 28.4453 222.049 28.4453 222.053 28.4453C222.058 28.4453 222.063 28.4453 222.067 28.4453C222.072 28.4453 222.077 28.4453 222.081 28.4453C222.086 28.4453 222.091 28.4453 222.096 28.4453C222.1 28.4453 222.105 28.4453 222.11 28.4453C222.114 28.4453 222.119 28.4453 222.124 28.4453C222.129 28.4453 222.133 28.4453 222.138 28.4453C222.143 28.4453 222.147 28.4453 222.152 28.4453C222.157 28.4453 222.161 28.4453 222.166 28.4453C222.171 28.4453 222.176 28.4453 222.18 28.4453C222.185 28.4453 222.19 28.4453 222.194 28.4453C222.199 28.4453 222.204 28.4453 222.209 28.4453C222.213 28.4453 222.218 28.4453 222.223 28.4453C222.227 28.4453 222.232 28.4453 222.237 28.4453C222.241 28.4453 222.246 28.4453 222.251 28.4453C222.256 28.4453 222.26 28.4453 222.265 28.4453C222.27 28.4453 222.274 28.4453 222.279 28.4453C222.284 28.4453 222.289 28.4453 222.293 28.4453C222.298 28.4453 222.303 28.4453 222.307 28.4453C222.312 28.4453 222.317 28.4453 222.321 28.4453C222.326 28.4453 222.331 28.4453 222.336 28.4453C222.34 28.4453 222.345 28.4453 222.35 28.4453C222.354 28.4453 222.359 28.4453 222.364 28.4453C222.368 28.4453 222.373 28.4453 222.378 28.4453C222.383 28.4453 222.387 28.4453 222.392 28.4453C222.397 28.4453 222.401 28.4453 222.406 28.4453C222.411 28.4453 222.416 28.4453 222.42 28.4453C222.425 28.4453 222.43 28.4453 222.434 28.4453C222.439 28.4453 222.444 28.4453 222.448 28.4453C222.453 28.4453 222.458 28.4453 222.463 28.4453C222.467 28.4453 222.472 28.4453 222.477 28.4453C222.481 28.4453 222.486 28.4453 222.491 28.4453C222.496 28.4453 222.5 28.4453 222.505 28.4453C222.51 28.4453 222.514 28.4453 222.519 28.4453C222.524 28.4453 222.528 28.4453 222.533 28.4453C222.538 28.4453 222.543 28.4453 222.547 28.4453C222.552 28.4453 222.557 28.4453 222.561 28.4453C222.566 28.4453 222.571 28.4453 222.576 28.4453C222.58 28.4453 222.585 28.4453 222.59 28.4453C222.594 28.4453 222.599 28.4453 222.604 28.4453C222.608 28.4453 222.613 28.4453 222.618 28.4453C222.623 28.4453 222.627 28.4453 222.632 28.4453C222.637 28.4453 222.641 28.4453 222.646 28.4453C222.651 28.4453 222.655 28.4453 222.66 28.4453C222.665 28.4453 222.67 28.4453 222.674 28.4453C222.679 28.4453 222.684 28.4453 222.688 28.4453C222.693 28.4453 222.698 28.4453 222.703 28.4453C222.707 28.4453 222.712 28.4453 222.717 28.4453C222.721 28.4453 222.726 28.4453 222.731 28.4453C222.735 28.4453 222.74 28.4453 222.745 28.4453C222.75 28.4453 222.754 28.4453 222.759 28.4453C222.764 28.4453 222.768 28.4453 222.773 28.4453C222.778 28.4453 222.783 28.4453 222.787 28.4453C222.792 28.4453 222.797 28.4453 222.801 28.4453C222.806 28.4453 222.811 28.4453 222.815 28.4453C222.82 28.4453 222.825 28.4453 222.83 28.4453C222.834 28.4453 222.839 28.4453 222.844 28.4453C222.848 28.4453 222.853 28.4453 222.858 28.4453C222.862 28.4453 222.867 28.4453 222.872 28.4453C222.877 28.4453 222.881 28.4453 222.886 28.4453C222.891 28.4453 222.895 28.4453 222.9 28.4453C222.905 28.4453 222.91 28.4453 222.914 28.4453C222.919 28.4453 222.924 28.4453 222.928 28.4453C222.933 28.4453 222.938 28.4453 222.942 28.4453C222.947 28.4453 222.952 28.4453 222.957 28.4453C222.961 28.4453 222.966 28.4453 222.971 28.4453C222.975 28.4453 222.98 28.4453 222.985 28.4453C222.99 28.4453 222.994 28.4453 222.999 28.4453C223.004 28.4453 223.008 28.4453 223.013 28.4453C223.018 28.4453 223.022 28.4453 223.027 28.4453C223.032 28.4453 223.037 28.4453 223.041 28.4453C223.046 28.4453 223.051 28.4453 223.055 28.4453C223.06 28.4453 223.065 28.4453 223.07 28.4453C223.074 28.4453 223.079 28.4453 223.084 28.4453C223.088 28.4453 223.093 28.4453 223.098 28.4453C223.102 28.4453 223.107 28.4453 223.112 28.4453C223.117 28.4453 223.121 28.4453 223.126 28.4453C223.131 28.4453 223.135 28.4453 223.14 28.4453C223.145 28.4453 223.149 28.4453 223.154 28.4453C223.159 28.4453 223.164 28.4453 223.168 28.4453C223.173 28.4453 223.178 28.4453 223.182 28.4453C223.187 28.4453 223.192 28.4453 223.197 28.4453C223.201 28.4453 223.206 28.4453 223.211 28.4453C223.215 28.4453 223.22 28.4453 223.225 28.4453C223.229 28.4453 223.234 28.4453 223.239 28.4453C223.244 28.4453 223.248 28.4453 223.253 28.4453C223.258 28.4453 223.262 28.4453 223.267 28.4453C223.272 28.4453 223.277 28.4453 223.281 28.4453C223.286 28.4453 223.291 28.4453 223.295 28.4453C223.3 28.4453 223.305 28.4453 223.309 28.4453C223.314 28.4453 223.319 28.4453 223.324 28.4453C223.328 28.4453 223.333 28.4453 223.338 28.4453C223.342 28.4453 223.347 28.4453 223.352 28.4453C223.356 28.4453 223.361 28.4453 223.366 28.4453C223.371 28.4453 223.375 28.4453 223.38 28.4453C223.385 28.4453 223.389 28.4453 223.394 28.4453C223.399 28.4453 223.404 28.4453 223.408 28.4453C223.413 28.4453 223.418 28.4453 223.422 28.4453C223.427 28.4453 223.432 28.4453 223.436 28.4453C223.441 28.4453 223.446 28.4453 223.451 28.4453C223.455 28.4453 223.46 28.4453 223.465 28.4453C223.469 28.4453 223.474 28.4453 223.479 28.4453C223.484 28.4453 223.488 28.4453 223.493 28.4453C223.498 28.4453 223.502 28.4453 223.507 28.4453C223.512 28.4453 223.516 28.4453 223.521 28.4453C223.526 28.4453 223.531 28.4453 223.535 28.4453C223.54 28.4453 223.545 28.4453 223.549 28.4453C223.554 28.4453 223.559 28.4453 223.564 28.4453C223.568 28.4453 223.573 28.4453 223.578 28.4453C223.582 28.4453 223.587 28.4453 223.592 28.4453C223.596 28.4453 223.601 28.4453 223.606 28.4453C223.611 28.4453 223.615 28.4453 223.62 28.4453C223.625 28.4453 223.629 28.4453 223.634 28.4453C223.639 28.4453 223.643 28.4453 223.648 28.4453C223.653 28.4453 223.658 28.4453 223.662 28.4453C223.667 28.4453 223.672 28.4453 223.676 28.4453C223.681 28.4453 223.686 28.4453 223.691 28.4453C223.695 28.4453 223.7 28.4453 223.705 28.4453C223.709 28.4453 223.714 28.4453 223.719 28.4453C223.723 28.4453 223.728 28.4453 223.733 28.4453C223.738 28.4453 223.742 28.4453 223.747 28.4453C223.752 28.4453 223.756 28.4453 223.761 28.4453C223.766 28.4453 223.771 28.4453 223.775 28.4453C223.78 28.4453 223.785 28.4453 223.789 28.4453C223.794 28.4453 223.799 28.4453 223.803 28.4453C223.808 28.4453 223.813 28.4453 223.818 28.4453C223.822 28.4453 223.827 28.4453 223.832 28.4453C223.836 28.4453 223.841 28.4453 223.846 28.4453C223.85 28.4453 223.855 28.4453 223.86 28.4453C223.865 28.4453 223.869 28.4453 223.874 28.4453C223.879 28.4453 223.883 28.4453 223.888 28.4453C223.893 28.4453 223.898 28.4453 223.902 28.4453C223.907 28.4453 223.912 28.4453 223.916 28.4453C223.921 28.4453 223.926 28.4453 223.93 28.4453C223.935 28.4453 223.94 28.4453 223.945 28.4453C223.949 28.4453 223.954 28.4453 223.959 28.4453C223.963 28.4453 223.968 28.4453 223.973 28.4453C223.978 28.4453 223.982 28.4453 223.987 28.4453C223.992 28.4453 223.996 28.4453 224.001 28.4453C224.006 28.4453 224.01 28.4453 224.015 28.4453C224.02 28.4453 224.025 28.4453 224.029 28.4453C224.034 28.4453 224.039 28.4453 224.043 28.4453C224.048 28.4453 224.053 28.4453 224.058 28.4453C224.062 28.4453 224.067 28.4453 224.072 28.4453C224.076 28.4453 224.081 28.4453 224.086 28.4453C224.09 28.4453 224.095 28.4453 224.1 28.4453C224.105 28.4453 224.109 28.4453 224.114 28.4453C224.119 28.4453 224.123 28.4453 224.128 28.4453C224.133 28.4453 224.137 28.4453 224.142 28.4453C224.147 28.4453 224.152 28.4453 224.156 28.4453C224.161 28.4453 224.166 28.4453 224.17 28.4453C224.175 28.4453 224.18 28.4453 224.185 28.4453C224.189 28.4453 224.194 28.4453 224.199 28.4453C224.203 28.4453 224.208 28.4453 224.213 28.4453C224.217 28.4453 224.222 28.4453 224.227 28.4453C224.232 28.4453 224.236 28.4453 224.241 28.4453C224.246 28.4453 224.25 28.4453 224.255 28.4453C224.26 28.4453 224.265 28.4453 224.269 28.4453C224.274 28.4453 224.279 28.4453 224.283 28.4453C224.288 28.4453 224.293 28.4453 224.297 28.4453C224.302 28.4453 224.307 28.4453 224.312 28.4453C224.316 28.4453 224.321 28.4453 224.326 28.4453C224.33 28.4453 224.335 28.4453 224.34 28.4453C224.345 28.4453 224.349 28.4453 224.354 28.4453C224.359 28.4453 224.363 28.4453 224.368 28.4453C224.373 28.4453 224.377 28.4453 224.382 28.4453C224.387 28.4453 224.392 28.4453 224.396 28.4453C224.401 28.4453 224.406 28.4453 224.41 28.4453C224.415 28.4453 224.42 28.4453 224.424 28.4453C224.429 28.4453 224.434 28.4453 224.439 28.4453C224.443 28.4453 224.448 28.4453 224.453 28.4453C224.457 28.4453 224.462 28.4453 224.467 28.4453C224.472 28.4453 224.476 28.4453 224.481 28.4453C224.486 28.4453 224.49 28.4453 224.495 28.4453C224.5 28.4453 224.504 28.4453 224.509 28.4453C224.514 28.4453 224.519 28.4453 224.523 28.4453C224.528 28.4453 224.533 28.4453 224.537 28.4453C224.542 28.4453 224.547 28.4453 224.552 28.4453C224.556 28.4453 224.561 28.4453 224.566 28.4453C224.57 28.4453 224.575 28.4453 224.58 28.4453C224.584 28.4453 224.589 28.4453 224.594 28.4453C224.599 28.4453 224.603 28.4453 224.608 28.4453C224.613 28.4453 224.617 28.4453 224.622 28.4453C224.627 28.4453 224.631 28.4453 224.636 28.4453C224.641 28.4453 224.646 28.4453 224.65 28.4453C224.655 28.4453 224.66 28.4453 224.664 28.4453C224.669 28.4453 224.674 28.4453 224.679 28.4453C224.683 28.4453 224.688 28.4453 224.693 28.4453C224.697 28.4453 224.702 28.4453 224.707 28.4453C224.711 28.4453 224.716 28.4453 224.721 28.4453C224.726 28.4453 224.73 28.4453 224.735 28.4453C224.74 28.4453 224.744 28.4453 224.749 28.4453C224.754 28.4453 224.759 28.4453 224.763 28.4453C224.768 28.4453 224.773 28.4453 224.777 28.4453C224.782 28.4453 224.787 28.4453 224.791 28.4453C224.796 28.4453 224.801 28.4453 224.806 28.4453C224.81 28.4453 224.815 28.4453 224.82 28.4453C224.824 28.4453 224.829 28.4453 224.834 28.4453C224.839 28.4453 224.843 28.4453 224.848 28.4453C224.853 28.4453 224.857 28.4453 224.862 28.4453C224.867 28.4453 224.871 28.4453 224.876 28.4453C224.881 28.4453 224.886 28.4453 224.89 28.4453C224.895 28.4453 224.9 28.4453 224.904 28.4453C224.909 28.4453 224.914 28.4453 224.918 28.4453C224.923 28.4453 224.928 28.4453 224.933 28.4453C224.937 28.4453 224.942 28.4453 224.947 28.4453C224.951 28.4453 224.956 28.4453 224.961 28.4453C224.966 28.4453 224.97 28.4453 224.975 28.4453C224.98 28.4453 224.984 28.4453 224.989 28.4453C224.994 28.4453 224.998 28.4453 225.003 28.4453C225.008 28.4453 225.013 28.4453 225.017 28.4453C225.022 28.4453 225.027 28.4453 225.031 28.4453C225.036 28.4453 225.041 28.4453 225.046 28.4453C225.05 28.4453 225.055 28.4453 225.06 28.4453C225.064 28.4453 225.069 28.4453 225.074 28.4453C225.078 28.4453 225.083 28.4453 225.088 28.4453C225.093 28.4453 225.097 28.4453 225.102 28.4453C225.107 28.4453 225.111 28.4453 225.116 28.4453C225.121 28.4453 225.125 28.4453 225.13 28.4453C225.135 28.4453 225.14 28.4453 225.144 28.4453C225.149 28.4453 225.154 28.4453 225.158 28.4453C225.163 28.4453 225.168 28.4453 225.173 28.4453C225.177 28.4453 225.182 28.4453 225.187 28.4453C225.191 28.4453 225.196 28.4453 225.201 28.4453C225.205 28.4453 225.21 28.4453 225.215 28.4453C225.22 28.4453 225.224 28.4453 225.229 28.4453C225.234 28.4453 225.238 28.4453 225.243 28.4453C225.248 28.4453 225.253 28.4453 225.257 28.4453C225.262 28.4453 225.267 28.4453 225.271 28.4453C225.276 28.4453 225.281 28.4453 225.285 28.4453C225.29 28.4453 225.295 28.4453 225.3 28.4453C225.304 28.4453 225.309 28.4453 225.314 28.4453C225.318 28.4453 225.323 28.4453 225.328 28.4453C225.333 28.4453 225.337 28.4453 225.342 28.4453C225.347 28.4453 225.351 28.4453 225.356 28.4453C225.361 28.4453 225.365 28.4453 225.37 28.4453C225.375 28.4453 225.38 28.4453 225.384 28.4453C225.389 28.4453 225.394 28.4453 225.398 28.4453C225.403 28.4453 225.408 28.4453 225.412 28.4453C225.417 28.4453 225.422 28.4453 225.427 28.4453C225.431 28.4453 225.436 28.4453 225.441 28.4453C225.445 28.4453 225.45 28.4453 225.455 28.4453C225.46 28.4453 225.464 28.4453 225.469 28.4453C225.474 28.4453 225.478 28.4453 225.483 28.4453C225.488 28.4453 225.492 28.4453 225.497 28.4453C225.502 28.4453 225.507 28.4453 225.511 28.4453C225.516 28.4453 225.521 28.4453 225.525 28.4453C225.53 28.4453 225.535 28.4453 225.54 28.4453C225.544 28.4453 225.549 28.4453 225.554 28.4453C225.558 28.4453 225.563 28.4453 225.568 28.4453C225.572 28.4453 225.577 28.4453 225.582 28.4453C225.587 28.4453 225.591 28.4453 225.596 28.4453C225.601 28.4453 225.605 28.4453 225.61 28.4453C225.615 28.4453 225.62 28.4453 225.624 28.4453C225.629 28.4453 225.634 28.4453 225.638 28.4453C225.643 28.4453 225.648 28.4453 225.652 28.4453C225.657 28.4453 225.662 28.4453 225.667 28.4453C225.671 28.4453 225.676 28.4453 225.681 28.4453C225.685 28.4453 225.69 28.4453 225.695 28.4453C225.699 28.4453 225.704 28.4453 225.709 28.4453C225.714 28.4453 225.718 28.4453 225.723 28.4453C225.728 28.4453 225.732 28.4453 225.737 28.4453C225.742 28.4453 225.747 28.4453 225.751 28.4453C225.756 28.4453 225.761 28.4453 225.765 28.4453C225.77 28.4453 225.775 28.4453 225.779 28.4453C225.784 28.4453 225.789 28.4453 225.794 28.4453C225.798 28.4453 225.803 28.4453 225.808 28.4453C225.812 28.4453 225.817 28.4453 225.822 28.4453C225.827 28.4453 225.831 28.4453 225.836 28.4453C225.841 28.4453 225.845 28.4453 225.85 28.4453C225.855 28.4453 225.859 28.4453 225.864 28.4453C225.869 28.4453 225.874 28.4453 225.878 28.4453C225.883 28.4453 225.888 28.4453 225.892 28.4453C225.897 28.4453 225.902 28.4453 225.906 28.4453C225.911 28.4453 225.916 28.4453 225.921 28.4453C225.925 28.4453 225.93 28.4453 225.935 28.4453C225.939 28.4453 225.944 28.4453 225.949 28.4453C225.954 28.4453 225.958 28.4453 225.963 28.4453C225.968 28.4453 225.972 28.4453 225.977 28.4453C225.982 28.4453 225.986 28.4453 225.991 28.4453C225.996 28.4453 226.001 28.4453 226.005 28.4453C226.01 28.4453 226.015 28.4453 226.019 28.4453C226.024 28.4453 226.029 28.4453 226.034 28.4453C226.038 28.4453 226.043 28.4453 226.048 28.4453C226.052 28.4453 226.057 28.4453 226.062 28.4453C226.066 28.4453 226.071 28.4453 226.076 28.4453C226.081 28.4453 226.085 28.4453 226.09 28.4453C226.095 28.4453 226.099 28.4453 226.104 28.4453C226.109 28.4453 226.114 28.4453 226.118 28.4453C226.123 28.4453 226.128 28.4453 226.132 28.4453C226.137 28.4453 226.142 28.4453 226.146 28.4453C226.151 28.4453 226.156 28.4453 226.161 28.4453C226.165 28.4453 226.17 28.4453 226.175 28.4453C226.179 28.4453 226.184 28.4453 226.189 28.4453C226.193 28.4453 226.198 28.4453 226.203 28.4453C226.208 28.4453 226.212 28.4453 226.217 28.4453C226.222 28.4453 226.226 28.4453 226.231 28.4453C226.236 28.4453 226.241 28.4453 226.245 28.4453C226.25 28.4453 226.255 28.4453 226.259 28.4453C226.264 28.4453 226.269 28.4453 226.273 28.4453C226.278 28.4453 226.283 28.4453 226.288 28.4453C226.292 28.4453 226.297 28.4453 226.302 28.4453C226.306 28.4453 226.311 28.4453 226.316 28.4453C226.321 28.4453 226.325 28.4453 226.33 28.4453C226.335 28.4453 226.339 28.4453 226.344 28.4453C226.349 28.4453 226.353 28.4453 226.358 28.4453C226.363 28.4453 226.368 28.4453 226.372 28.4453C226.377 28.4453 226.382 28.4453 226.386 28.4453C226.391 28.4453 226.396 28.4453 226.4 28.4453C226.405 28.4453 226.41 28.4453 226.415 28.4453C226.419 28.4453 226.424 28.4453 226.429 28.4453C226.433 28.4453 226.438 28.4453 226.443 28.4453C226.448 28.4453 226.452 28.4453 226.457 28.4453C226.462 28.4453 226.466 28.4453 226.471 28.4453C226.476 28.4453 226.48 28.4453 226.485 28.4453C226.49 28.4453 226.495 28.4453 226.499 28.4453C226.504 28.4453 226.509 28.4453 226.513 28.4453C226.518 28.4453 226.523 28.4453 226.528 28.4453C226.532 28.4453 226.537 28.4453 226.542 28.4453C226.546 28.4453 226.551 28.4453 226.556 28.4453C226.56 28.4453 226.565 28.4453 226.57 28.4453C226.575 28.4453 226.579 28.4453 226.584 28.4453C226.589 28.4453 226.593 28.4453 226.598 28.4453C226.603 28.4453 226.608 28.4453 226.612 28.4453C226.617 28.4453 226.622 28.4453 226.626 28.4453C226.631 28.4453 226.636 28.4453 226.64 28.4453C226.645 28.4453 226.65 28.4453 226.655 28.4453C226.659 28.4453 226.664 28.4453 226.669 28.4453C226.673 28.4453 226.678 28.4453 226.683 28.4453C226.687 28.4453 226.692 28.4453 226.697 28.4453C226.702 28.4453 226.706 28.4453 226.711 28.4453C226.716 28.4453 226.72 28.4453 226.725 28.4453C226.73 28.4453 226.735 28.4453 226.739 28.4453C226.744 28.4453 226.749 28.4453 226.753 28.4453C226.758 28.4453 226.763 28.4453 226.767 28.4453C226.772 28.4453 226.777 28.4453 226.782 28.4453C226.786 28.4453 226.791 28.4453 226.796 28.4453C226.8 28.4453 226.805 28.4453 226.81 28.4453C226.815 28.4453 226.819 28.4453 226.824 28.4453C226.829 28.4453 226.833 28.4453 226.838 28.4453C226.843 28.4453 226.847 28.4453 226.852 28.4453C226.857 28.4453 226.862 28.4453 226.866 28.4453C226.871 28.4453 226.876 28.4453 226.88 28.4453C226.885 28.4453 226.89 28.4453 226.895 28.4453C226.899 28.4453 226.904 28.4453 226.909 28.4453C226.913 28.4453 226.918 28.4453 226.923 28.4453C226.927 28.4453 226.932 28.4453 226.937 28.4453C226.942 28.4453 226.946 28.4453 226.951 28.4453C226.956 28.4453 226.96 28.4453 226.965 28.4453C226.97 28.4453 226.974 28.4453 226.979 28.4453C226.984 28.4453 226.989 28.4453 226.993 28.4453C226.998 28.4453 227.003 28.4453 227.007 28.4453C227.012 28.4453 227.017 28.4453 227.022 28.4453C227.026 28.4453 227.031 28.4453 227.036 28.4453C227.04 28.4453 227.045 28.4453 227.05 28.4453C227.054 28.4453 227.059 28.4453 227.064 28.4453C227.069 28.4453 227.073 28.4453 227.078 28.4453C227.083 28.4453 227.087 28.4453 227.092 28.4453C227.097 28.4453 227.102 28.4453 227.106 28.4453C227.111 28.4453 227.116 28.4453 227.12 28.4453C227.125 28.4453 227.13 28.4453 227.134 28.4453C227.139 28.4453 227.144 28.4453 227.149 28.4453C227.153 28.4453 227.158 28.4453 227.163 28.4453C227.167 28.4453 227.172 28.4453 227.177 28.4453C227.181 28.4453 227.186 28.4453 227.191 28.4453C227.196 28.4453 227.2 28.4453 227.205 28.4453C227.21 28.4453 227.214 28.4453 227.219 28.4453C227.224 28.4453 227.229 28.4453 227.233 28.4453C227.238 28.4453 227.243 28.4453 227.247 28.4453C227.252 28.4453 227.257 28.4453 227.261 28.4453C227.266 28.4453 227.271 28.4453 227.276 28.4453C227.28 28.4453 227.285 28.4453 227.29 28.4453C227.294 28.4453 227.299 28.4453 227.304 28.4453C227.309 28.4453 227.313 28.4453 227.318 28.4453C227.323 28.4453 227.327 28.4453 227.332 28.4453C227.337 28.4453 227.341 28.4453 227.346 28.4453C227.351 28.4453 227.356 28.4453 227.36 28.4453C227.365 28.4453 227.37 28.4453 227.374 28.4453C227.379 28.4453 227.384 28.4453 227.389 28.4453C227.393 28.4453 227.398 28.4453 227.403 28.4453C227.407 28.4453 227.412 28.4453 227.417 28.4453C227.421 28.4453 227.426 28.4453 227.431 28.4453C227.436 28.4453 227.44 28.4453 227.445 28.4453C227.45 28.4453 227.454 28.4453 227.459 28.4453C227.464 28.4453 227.468 28.4453 227.473 28.4453C227.478 28.4453 227.483 28.4453 227.487 28.4453C227.492 28.4453 227.497 28.4453 227.501 28.4453C227.506 28.4453 227.511 28.4453 227.516 28.4453C227.52 28.4453 227.525 28.4453 227.53 28.4453C227.534 28.4453 227.539 28.4453 227.544 28.4453C227.548 28.4453 227.553 28.4453 227.558 28.4453C227.563 28.4453 227.567 28.4453 227.572 28.4453C227.577 28.4453 227.581 28.4453 227.586 28.4453C227.591 28.4453 227.596 28.4453 227.6 28.4453C227.605 28.4453 227.61 28.4453 227.614 28.4453C227.619 28.4453 227.624 28.4453 227.628 28.4453C227.633 28.4453 227.638 28.4453 227.643 28.4453C227.647 28.4453 227.652 28.4453 227.657 28.4453C227.661 28.4453 227.666 28.4453 227.671 28.4453C227.675 28.4453 227.68 28.4453 227.685 28.4453C227.69 28.4453 227.694 28.4453 227.699 28.4453C227.704 28.4453 227.708 28.4453 227.713 28.4453C227.718 28.4453 227.723 28.4453 227.727 28.4453C227.732 28.4453 227.737 28.4453 227.741 28.4453C227.746 28.4453 227.751 28.4453 227.755 28.4453C227.76 28.4453 227.765 28.4453 227.77 28.4453C227.774 28.4453 227.779 28.4453 227.784 28.4453C227.788 28.4453 227.793 28.4453 227.798 28.4453C227.803 28.4453 227.807 28.4453 227.812 28.4453C227.817 28.4453 227.821 28.4453 227.826 28.4453C227.831 28.4453 227.835 28.4453 227.84 28.4453C227.845 28.4453 227.85 28.4453 227.854 28.4453C227.859 28.4453 227.864 28.4453 227.868 28.4453C227.873 28.4453 227.878 28.4453 227.883 28.4453C227.887 28.4453 227.892 28.4453 227.897 28.4453C227.901 28.4453 227.906 28.4453 227.911 28.4453C227.915 28.4453 227.92 28.4453 227.925 28.4453C227.93 28.4453 227.934 28.4453 227.939 28.4453C227.944 28.4453 227.948 28.4453 227.953 28.4453C227.958 28.4453 227.962 28.4453 227.967 28.4453C227.972 28.4453 227.977 28.4453 227.981 28.4453C227.986 28.4453 227.991 28.4453 227.995 28.4453C228 28.4453 228.005 28.4453 228.01 28.4453C228.014 28.4453 228.019 28.4453 228.024 28.4453C228.028 28.4453 228.033 28.4453 228.038 28.4453C228.042 28.4453 228.047 28.4453 228.052 28.4453C228.057 28.4453 228.061 28.4453 228.066 28.4453C228.071 28.4453 228.075 28.4453 228.08 28.4453C228.085 28.4453 228.09 28.4453 228.094 28.4453C228.099 28.4453 228.104 28.4453 228.108 28.4453C228.113 28.4453 228.118 28.4453 228.122 28.4453C228.127 28.4453 228.132 28.4453 228.137 28.4453C228.141 28.4453 228.146 28.4453 228.151 28.4453C228.155 28.4453 228.16 28.4453 228.165 28.4453C228.169 28.4453 228.174 28.4453 228.179 28.4453C228.184 28.4453 228.188 28.4453 228.193 28.4453C228.198 28.4453 228.202 28.4453 228.207 28.4453C228.212 28.4453 228.217 28.4453 228.221 28.4453C228.226 28.4453 228.231 28.4453 228.235 28.4453C228.24 28.4453 228.245 28.4453 228.249 28.4453C228.254 28.4453 228.259 28.4453 228.264 28.4453C228.268 28.4453 228.273 28.4453 228.278 28.4453C228.282 28.4453 228.287 28.4453 228.292 28.4453C228.297 28.4453 228.301 28.4453 228.306 28.4453C228.311 28.4453 228.315 28.4453 228.32 28.4453C228.325 28.4453 228.329 28.4453 228.334 28.4453C228.339 28.4453 228.344 28.4453 228.348 28.4453C228.353 28.4453 228.358 28.4453 228.362 28.4453C228.367 28.4453 228.372 28.4453 228.377 28.4453C228.381 28.4453 228.386 28.4453 228.391 28.4453V16.4453C228.386 16.4453 228.381 16.4453 228.377 16.4453C228.372 16.4453 228.367 16.4453 228.362 16.4453C228.358 16.4453 228.353 16.4453 228.348 16.4453C228.344 16.4453 228.339 16.4453 228.334 16.4453C228.329 16.4453 228.325 16.4453 228.32 16.4453C228.315 16.4453 228.311 16.4453 228.306 16.4453C228.301 16.4453 228.297 16.4453 228.292 16.4453C228.287 16.4453 228.282 16.4453 228.278 16.4453C228.273 16.4453 228.268 16.4453 228.264 16.4453C228.259 16.4453 228.254 16.4453 228.249 16.4453C228.245 16.4453 228.24 16.4453 228.235 16.4453C228.231 16.4453 228.226 16.4453 228.221 16.4453C228.217 16.4453 228.212 16.4453 228.207 16.4453C228.202 16.4453 228.198 16.4453 228.193 16.4453C228.188 16.4453 228.184 16.4453 228.179 16.4453C228.174 16.4453 228.169 16.4453 228.165 16.4453C228.16 16.4453 228.155 16.4453 228.151 16.4453C228.146 16.4453 228.141 16.4453 228.137 16.4453C228.132 16.4453 228.127 16.4453 228.122 16.4453C228.118 16.4453 228.113 16.4453 228.108 16.4453C228.104 16.4453 228.099 16.4453 228.094 16.4453C228.09 16.4453 228.085 16.4453 228.08 16.4453C228.075 16.4453 228.071 16.4453 228.066 16.4453C228.061 16.4453 228.057 16.4453 228.052 16.4453C228.047 16.4453 228.042 16.4453 228.038 16.4453C228.033 16.4453 228.028 16.4453 228.024 16.4453C228.019 16.4453 228.014 16.4453 228.01 16.4453C228.005 16.4453 228 16.4453 227.995 16.4453C227.991 16.4453 227.986 16.4453 227.981 16.4453C227.977 16.4453 227.972 16.4453 227.967 16.4453C227.962 16.4453 227.958 16.4453 227.953 16.4453C227.948 16.4453 227.944 16.4453 227.939 16.4453C227.934 16.4453 227.93 16.4453 227.925 16.4453C227.92 16.4453 227.915 16.4453 227.911 16.4453C227.906 16.4453 227.901 16.4453 227.897 16.4453C227.892 16.4453 227.887 16.4453 227.883 16.4453C227.878 16.4453 227.873 16.4453 227.868 16.4453C227.864 16.4453 227.859 16.4453 227.854 16.4453C227.85 16.4453 227.845 16.4453 227.84 16.4453C227.835 16.4453 227.831 16.4453 227.826 16.4453C227.821 16.4453 227.817 16.4453 227.812 16.4453C227.807 16.4453 227.803 16.4453 227.798 16.4453C227.793 16.4453 227.788 16.4453 227.784 16.4453C227.779 16.4453 227.774 16.4453 227.77 16.4453C227.765 16.4453 227.76 16.4453 227.755 16.4453C227.751 16.4453 227.746 16.4453 227.741 16.4453C227.737 16.4453 227.732 16.4453 227.727 16.4453C227.723 16.4453 227.718 16.4453 227.713 16.4453C227.708 16.4453 227.704 16.4453 227.699 16.4453C227.694 16.4453 227.69 16.4453 227.685 16.4453C227.68 16.4453 227.675 16.4453 227.671 16.4453C227.666 16.4453 227.661 16.4453 227.657 16.4453C227.652 16.4453 227.647 16.4453 227.643 16.4453C227.638 16.4453 227.633 16.4453 227.628 16.4453C227.624 16.4453 227.619 16.4453 227.614 16.4453C227.61 16.4453 227.605 16.4453 227.6 16.4453C227.596 16.4453 227.591 16.4453 227.586 16.4453C227.581 16.4453 227.577 16.4453 227.572 16.4453C227.567 16.4453 227.563 16.4453 227.558 16.4453C227.553 16.4453 227.548 16.4453 227.544 16.4453C227.539 16.4453 227.534 16.4453 227.53 16.4453C227.525 16.4453 227.52 16.4453 227.516 16.4453C227.511 16.4453 227.506 16.4453 227.501 16.4453C227.497 16.4453 227.492 16.4453 227.487 16.4453C227.483 16.4453 227.478 16.4453 227.473 16.4453C227.468 16.4453 227.464 16.4453 227.459 16.4453C227.454 16.4453 227.45 16.4453 227.445 16.4453C227.44 16.4453 227.436 16.4453 227.431 16.4453C227.426 16.4453 227.421 16.4453 227.417 16.4453C227.412 16.4453 227.407 16.4453 227.403 16.4453C227.398 16.4453 227.393 16.4453 227.389 16.4453C227.384 16.4453 227.379 16.4453 227.374 16.4453C227.37 16.4453 227.365 16.4453 227.36 16.4453C227.356 16.4453 227.351 16.4453 227.346 16.4453C227.341 16.4453 227.337 16.4453 227.332 16.4453C227.327 16.4453 227.323 16.4453 227.318 16.4453C227.313 16.4453 227.309 16.4453 227.304 16.4453C227.299 16.4453 227.294 16.4453 227.29 16.4453C227.285 16.4453 227.28 16.4453 227.276 16.4453C227.271 16.4453 227.266 16.4453 227.261 16.4453C227.257 16.4453 227.252 16.4453 227.247 16.4453C227.243 16.4453 227.238 16.4453 227.233 16.4453C227.229 16.4453 227.224 16.4453 227.219 16.4453C227.214 16.4453 227.21 16.4453 227.205 16.4453C227.2 16.4453 227.196 16.4453 227.191 16.4453C227.186 16.4453 227.181 16.4453 227.177 16.4453C227.172 16.4453 227.167 16.4453 227.163 16.4453C227.158 16.4453 227.153 16.4453 227.149 16.4453C227.144 16.4453 227.139 16.4453 227.134 16.4453C227.13 16.4453 227.125 16.4453 227.12 16.4453C227.116 16.4453 227.111 16.4453 227.106 16.4453C227.102 16.4453 227.097 16.4453 227.092 16.4453C227.087 16.4453 227.083 16.4453 227.078 16.4453C227.073 16.4453 227.069 16.4453 227.064 16.4453C227.059 16.4453 227.054 16.4453 227.05 16.4453C227.045 16.4453 227.04 16.4453 227.036 16.4453C227.031 16.4453 227.026 16.4453 227.022 16.4453C227.017 16.4453 227.012 16.4453 227.007 16.4453C227.003 16.4453 226.998 16.4453 226.993 16.4453C226.989 16.4453 226.984 16.4453 226.979 16.4453C226.974 16.4453 226.97 16.4453 226.965 16.4453C226.96 16.4453 226.956 16.4453 226.951 16.4453C226.946 16.4453 226.942 16.4453 226.937 16.4453C226.932 16.4453 226.927 16.4453 226.923 16.4453C226.918 16.4453 226.913 16.4453 226.909 16.4453C226.904 16.4453 226.899 16.4453 226.895 16.4453C226.89 16.4453 226.885 16.4453 226.88 16.4453C226.876 16.4453 226.871 16.4453 226.866 16.4453C226.862 16.4453 226.857 16.4453 226.852 16.4453C226.847 16.4453 226.843 16.4453 226.838 16.4453C226.833 16.4453 226.829 16.4453 226.824 16.4453C226.819 16.4453 226.815 16.4453 226.81 16.4453C226.805 16.4453 226.8 16.4453 226.796 16.4453C226.791 16.4453 226.786 16.4453 226.782 16.4453C226.777 16.4453 226.772 16.4453 226.767 16.4453C226.763 16.4453 226.758 16.4453 226.753 16.4453C226.749 16.4453 226.744 16.4453 226.739 16.4453C226.735 16.4453 226.73 16.4453 226.725 16.4453C226.72 16.4453 226.716 16.4453 226.711 16.4453C226.706 16.4453 226.702 16.4453 226.697 16.4453C226.692 16.4453 226.687 16.4453 226.683 16.4453C226.678 16.4453 226.673 16.4453 226.669 16.4453C226.664 16.4453 226.659 16.4453 226.655 16.4453C226.65 16.4453 226.645 16.4453 226.64 16.4453C226.636 16.4453 226.631 16.4453 226.626 16.4453C226.622 16.4453 226.617 16.4453 226.612 16.4453C226.608 16.4453 226.603 16.4453 226.598 16.4453C226.593 16.4453 226.589 16.4453 226.584 16.4453C226.579 16.4453 226.575 16.4453 226.57 16.4453C226.565 16.4453 226.56 16.4453 226.556 16.4453C226.551 16.4453 226.546 16.4453 226.542 16.4453C226.537 16.4453 226.532 16.4453 226.528 16.4453C226.523 16.4453 226.518 16.4453 226.513 16.4453C226.509 16.4453 226.504 16.4453 226.499 16.4453C226.495 16.4453 226.49 16.4453 226.485 16.4453C226.48 16.4453 226.476 16.4453 226.471 16.4453C226.466 16.4453 226.462 16.4453 226.457 16.4453C226.452 16.4453 226.448 16.4453 226.443 16.4453C226.438 16.4453 226.433 16.4453 226.429 16.4453C226.424 16.4453 226.419 16.4453 226.415 16.4453C226.41 16.4453 226.405 16.4453 226.4 16.4453C226.396 16.4453 226.391 16.4453 226.386 16.4453C226.382 16.4453 226.377 16.4453 226.372 16.4453C226.368 16.4453 226.363 16.4453 226.358 16.4453C226.353 16.4453 226.349 16.4453 226.344 16.4453C226.339 16.4453 226.335 16.4453 226.33 16.4453C226.325 16.4453 226.321 16.4453 226.316 16.4453C226.311 16.4453 226.306 16.4453 226.302 16.4453C226.297 16.4453 226.292 16.4453 226.288 16.4453C226.283 16.4453 226.278 16.4453 226.273 16.4453C226.269 16.4453 226.264 16.4453 226.259 16.4453C226.255 16.4453 226.25 16.4453 226.245 16.4453C226.241 16.4453 226.236 16.4453 226.231 16.4453C226.226 16.4453 226.222 16.4453 226.217 16.4453C226.212 16.4453 226.208 16.4453 226.203 16.4453C226.198 16.4453 226.193 16.4453 226.189 16.4453C226.184 16.4453 226.179 16.4453 226.175 16.4453C226.17 16.4453 226.165 16.4453 226.161 16.4453C226.156 16.4453 226.151 16.4453 226.146 16.4453C226.142 16.4453 226.137 16.4453 226.132 16.4453C226.128 16.4453 226.123 16.4453 226.118 16.4453C226.114 16.4453 226.109 16.4453 226.104 16.4453C226.099 16.4453 226.095 16.4453 226.09 16.4453C226.085 16.4453 226.081 16.4453 226.076 16.4453C226.071 16.4453 226.066 16.4453 226.062 16.4453C226.057 16.4453 226.052 16.4453 226.048 16.4453C226.043 16.4453 226.038 16.4453 226.034 16.4453C226.029 16.4453 226.024 16.4453 226.019 16.4453C226.015 16.4453 226.01 16.4453 226.005 16.4453C226.001 16.4453 225.996 16.4453 225.991 16.4453C225.986 16.4453 225.982 16.4453 225.977 16.4453C225.972 16.4453 225.968 16.4453 225.963 16.4453C225.958 16.4453 225.954 16.4453 225.949 16.4453C225.944 16.4453 225.939 16.4453 225.935 16.4453C225.93 16.4453 225.925 16.4453 225.921 16.4453C225.916 16.4453 225.911 16.4453 225.906 16.4453C225.902 16.4453 225.897 16.4453 225.892 16.4453C225.888 16.4453 225.883 16.4453 225.878 16.4453C225.874 16.4453 225.869 16.4453 225.864 16.4453C225.859 16.4453 225.855 16.4453 225.85 16.4453C225.845 16.4453 225.841 16.4453 225.836 16.4453C225.831 16.4453 225.827 16.4453 225.822 16.4453C225.817 16.4453 225.812 16.4453 225.808 16.4453C225.803 16.4453 225.798 16.4453 225.794 16.4453C225.789 16.4453 225.784 16.4453 225.779 16.4453C225.775 16.4453 225.77 16.4453 225.765 16.4453C225.761 16.4453 225.756 16.4453 225.751 16.4453C225.747 16.4453 225.742 16.4453 225.737 16.4453C225.732 16.4453 225.728 16.4453 225.723 16.4453C225.718 16.4453 225.714 16.4453 225.709 16.4453C225.704 16.4453 225.699 16.4453 225.695 16.4453C225.69 16.4453 225.685 16.4453 225.681 16.4453C225.676 16.4453 225.671 16.4453 225.667 16.4453C225.662 16.4453 225.657 16.4453 225.652 16.4453C225.648 16.4453 225.643 16.4453 225.638 16.4453C225.634 16.4453 225.629 16.4453 225.624 16.4453C225.62 16.4453 225.615 16.4453 225.61 16.4453C225.605 16.4453 225.601 16.4453 225.596 16.4453C225.591 16.4453 225.587 16.4453 225.582 16.4453C225.577 16.4453 225.572 16.4453 225.568 16.4453C225.563 16.4453 225.558 16.4453 225.554 16.4453C225.549 16.4453 225.544 16.4453 225.54 16.4453C225.535 16.4453 225.53 16.4453 225.525 16.4453C225.521 16.4453 225.516 16.4453 225.511 16.4453C225.507 16.4453 225.502 16.4453 225.497 16.4453C225.492 16.4453 225.488 16.4453 225.483 16.4453C225.478 16.4453 225.474 16.4453 225.469 16.4453C225.464 16.4453 225.46 16.4453 225.455 16.4453C225.45 16.4453 225.445 16.4453 225.441 16.4453C225.436 16.4453 225.431 16.4453 225.427 16.4453C225.422 16.4453 225.417 16.4453 225.412 16.4453C225.408 16.4453 225.403 16.4453 225.398 16.4453C225.394 16.4453 225.389 16.4453 225.384 16.4453C225.38 16.4453 225.375 16.4453 225.37 16.4453C225.365 16.4453 225.361 16.4453 225.356 16.4453C225.351 16.4453 225.347 16.4453 225.342 16.4453C225.337 16.4453 225.333 16.4453 225.328 16.4453C225.323 16.4453 225.318 16.4453 225.314 16.4453C225.309 16.4453 225.304 16.4453 225.3 16.4453C225.295 16.4453 225.29 16.4453 225.285 16.4453C225.281 16.4453 225.276 16.4453 225.271 16.4453C225.267 16.4453 225.262 16.4453 225.257 16.4453C225.253 16.4453 225.248 16.4453 225.243 16.4453C225.238 16.4453 225.234 16.4453 225.229 16.4453C225.224 16.4453 225.22 16.4453 225.215 16.4453C225.21 16.4453 225.205 16.4453 225.201 16.4453C225.196 16.4453 225.191 16.4453 225.187 16.4453C225.182 16.4453 225.177 16.4453 225.173 16.4453C225.168 16.4453 225.163 16.4453 225.158 16.4453C225.154 16.4453 225.149 16.4453 225.144 16.4453C225.14 16.4453 225.135 16.4453 225.13 16.4453C225.125 16.4453 225.121 16.4453 225.116 16.4453C225.111 16.4453 225.107 16.4453 225.102 16.4453C225.097 16.4453 225.093 16.4453 225.088 16.4453C225.083 16.4453 225.078 16.4453 225.074 16.4453C225.069 16.4453 225.064 16.4453 225.06 16.4453C225.055 16.4453 225.05 16.4453 225.046 16.4453C225.041 16.4453 225.036 16.4453 225.031 16.4453C225.027 16.4453 225.022 16.4453 225.017 16.4453C225.013 16.4453 225.008 16.4453 225.003 16.4453C224.998 16.4453 224.994 16.4453 224.989 16.4453C224.984 16.4453 224.98 16.4453 224.975 16.4453C224.97 16.4453 224.966 16.4453 224.961 16.4453C224.956 16.4453 224.951 16.4453 224.947 16.4453C224.942 16.4453 224.937 16.4453 224.933 16.4453C224.928 16.4453 224.923 16.4453 224.918 16.4453C224.914 16.4453 224.909 16.4453 224.904 16.4453C224.9 16.4453 224.895 16.4453 224.89 16.4453C224.886 16.4453 224.881 16.4453 224.876 16.4453C224.871 16.4453 224.867 16.4453 224.862 16.4453C224.857 16.4453 224.853 16.4453 224.848 16.4453C224.843 16.4453 224.839 16.4453 224.834 16.4453C224.829 16.4453 224.824 16.4453 224.82 16.4453C224.815 16.4453 224.81 16.4453 224.806 16.4453C224.801 16.4453 224.796 16.4453 224.791 16.4453C224.787 16.4453 224.782 16.4453 224.777 16.4453C224.773 16.4453 224.768 16.4453 224.763 16.4453C224.759 16.4453 224.754 16.4453 224.749 16.4453C224.744 16.4453 224.74 16.4453 224.735 16.4453C224.73 16.4453 224.726 16.4453 224.721 16.4453C224.716 16.4453 224.711 16.4453 224.707 16.4453C224.702 16.4453 224.697 16.4453 224.693 16.4453C224.688 16.4453 224.683 16.4453 224.679 16.4453C224.674 16.4453 224.669 16.4453 224.664 16.4453C224.66 16.4453 224.655 16.4453 224.65 16.4453C224.646 16.4453 224.641 16.4453 224.636 16.4453C224.631 16.4453 224.627 16.4453 224.622 16.4453C224.617 16.4453 224.613 16.4453 224.608 16.4453C224.603 16.4453 224.599 16.4453 224.594 16.4453C224.589 16.4453 224.584 16.4453 224.58 16.4453C224.575 16.4453 224.57 16.4453 224.566 16.4453C224.561 16.4453 224.556 16.4453 224.552 16.4453C224.547 16.4453 224.542 16.4453 224.537 16.4453C224.533 16.4453 224.528 16.4453 224.523 16.4453C224.519 16.4453 224.514 16.4453 224.509 16.4453C224.504 16.4453 224.5 16.4453 224.495 16.4453C224.49 16.4453 224.486 16.4453 224.481 16.4453C224.476 16.4453 224.472 16.4453 224.467 16.4453C224.462 16.4453 224.457 16.4453 224.453 16.4453C224.448 16.4453 224.443 16.4453 224.439 16.4453C224.434 16.4453 224.429 16.4453 224.424 16.4453C224.42 16.4453 224.415 16.4453 224.41 16.4453C224.406 16.4453 224.401 16.4453 224.396 16.4453C224.392 16.4453 224.387 16.4453 224.382 16.4453C224.377 16.4453 224.373 16.4453 224.368 16.4453C224.363 16.4453 224.359 16.4453 224.354 16.4453C224.349 16.4453 224.345 16.4453 224.34 16.4453C224.335 16.4453 224.33 16.4453 224.326 16.4453C224.321 16.4453 224.316 16.4453 224.312 16.4453C224.307 16.4453 224.302 16.4453 224.297 16.4453C224.293 16.4453 224.288 16.4453 224.283 16.4453C224.279 16.4453 224.274 16.4453 224.269 16.4453C224.265 16.4453 224.26 16.4453 224.255 16.4453C224.25 16.4453 224.246 16.4453 224.241 16.4453C224.236 16.4453 224.232 16.4453 224.227 16.4453C224.222 16.4453 224.217 16.4453 224.213 16.4453C224.208 16.4453 224.203 16.4453 224.199 16.4453C224.194 16.4453 224.189 16.4453 224.185 16.4453C224.18 16.4453 224.175 16.4453 224.17 16.4453C224.166 16.4453 224.161 16.4453 224.156 16.4453C224.152 16.4453 224.147 16.4453 224.142 16.4453C224.137 16.4453 224.133 16.4453 224.128 16.4453C224.123 16.4453 224.119 16.4453 224.114 16.4453C224.109 16.4453 224.105 16.4453 224.1 16.4453C224.095 16.4453 224.09 16.4453 224.086 16.4453C224.081 16.4453 224.076 16.4453 224.072 16.4453C224.067 16.4453 224.062 16.4453 224.058 16.4453C224.053 16.4453 224.048 16.4453 224.043 16.4453C224.039 16.4453 224.034 16.4453 224.029 16.4453C224.025 16.4453 224.02 16.4453 224.015 16.4453C224.01 16.4453 224.006 16.4453 224.001 16.4453C223.996 16.4453 223.992 16.4453 223.987 16.4453C223.982 16.4453 223.978 16.4453 223.973 16.4453C223.968 16.4453 223.963 16.4453 223.959 16.4453C223.954 16.4453 223.949 16.4453 223.945 16.4453C223.94 16.4453 223.935 16.4453 223.93 16.4453C223.926 16.4453 223.921 16.4453 223.916 16.4453C223.912 16.4453 223.907 16.4453 223.902 16.4453C223.898 16.4453 223.893 16.4453 223.888 16.4453C223.883 16.4453 223.879 16.4453 223.874 16.4453C223.869 16.4453 223.865 16.4453 223.86 16.4453C223.855 16.4453 223.85 16.4453 223.846 16.4453C223.841 16.4453 223.836 16.4453 223.832 16.4453C223.827 16.4453 223.822 16.4453 223.818 16.4453C223.813 16.4453 223.808 16.4453 223.803 16.4453C223.799 16.4453 223.794 16.4453 223.789 16.4453C223.785 16.4453 223.78 16.4453 223.775 16.4453C223.771 16.4453 223.766 16.4453 223.761 16.4453C223.756 16.4453 223.752 16.4453 223.747 16.4453C223.742 16.4453 223.738 16.4453 223.733 16.4453C223.728 16.4453 223.723 16.4453 223.719 16.4453C223.714 16.4453 223.709 16.4453 223.705 16.4453C223.7 16.4453 223.695 16.4453 223.691 16.4453C223.686 16.4453 223.681 16.4453 223.676 16.4453C223.672 16.4453 223.667 16.4453 223.662 16.4453C223.658 16.4453 223.653 16.4453 223.648 16.4453C223.643 16.4453 223.639 16.4453 223.634 16.4453C223.629 16.4453 223.625 16.4453 223.62 16.4453C223.615 16.4453 223.611 16.4453 223.606 16.4453C223.601 16.4453 223.596 16.4453 223.592 16.4453C223.587 16.4453 223.582 16.4453 223.578 16.4453C223.573 16.4453 223.568 16.4453 223.564 16.4453C223.559 16.4453 223.554 16.4453 223.549 16.4453C223.545 16.4453 223.54 16.4453 223.535 16.4453C223.531 16.4453 223.526 16.4453 223.521 16.4453C223.516 16.4453 223.512 16.4453 223.507 16.4453C223.502 16.4453 223.498 16.4453 223.493 16.4453C223.488 16.4453 223.484 16.4453 223.479 16.4453C223.474 16.4453 223.469 16.4453 223.465 16.4453C223.46 16.4453 223.455 16.4453 223.451 16.4453C223.446 16.4453 223.441 16.4453 223.436 16.4453C223.432 16.4453 223.427 16.4453 223.422 16.4453C223.418 16.4453 223.413 16.4453 223.408 16.4453C223.404 16.4453 223.399 16.4453 223.394 16.4453C223.389 16.4453 223.385 16.4453 223.38 16.4453C223.375 16.4453 223.371 16.4453 223.366 16.4453C223.361 16.4453 223.356 16.4453 223.352 16.4453C223.347 16.4453 223.342 16.4453 223.338 16.4453C223.333 16.4453 223.328 16.4453 223.324 16.4453C223.319 16.4453 223.314 16.4453 223.309 16.4453C223.305 16.4453 223.3 16.4453 223.295 16.4453C223.291 16.4453 223.286 16.4453 223.281 16.4453C223.277 16.4453 223.272 16.4453 223.267 16.4453C223.262 16.4453 223.258 16.4453 223.253 16.4453C223.248 16.4453 223.244 16.4453 223.239 16.4453C223.234 16.4453 223.229 16.4453 223.225 16.4453C223.22 16.4453 223.215 16.4453 223.211 16.4453C223.206 16.4453 223.201 16.4453 223.197 16.4453C223.192 16.4453 223.187 16.4453 223.182 16.4453C223.178 16.4453 223.173 16.4453 223.168 16.4453C223.164 16.4453 223.159 16.4453 223.154 16.4453C223.149 16.4453 223.145 16.4453 223.14 16.4453C223.135 16.4453 223.131 16.4453 223.126 16.4453C223.121 16.4453 223.117 16.4453 223.112 16.4453C223.107 16.4453 223.102 16.4453 223.098 16.4453C223.093 16.4453 223.088 16.4453 223.084 16.4453C223.079 16.4453 223.074 16.4453 223.07 16.4453C223.065 16.4453 223.06 16.4453 223.055 16.4453C223.051 16.4453 223.046 16.4453 223.041 16.4453C223.037 16.4453 223.032 16.4453 223.027 16.4453C223.022 16.4453 223.018 16.4453 223.013 16.4453C223.008 16.4453 223.004 16.4453 222.999 16.4453C222.994 16.4453 222.99 16.4453 222.985 16.4453C222.98 16.4453 222.975 16.4453 222.971 16.4453C222.966 16.4453 222.961 16.4453 222.957 16.4453C222.952 16.4453 222.947 16.4453 222.942 16.4453C222.938 16.4453 222.933 16.4453 222.928 16.4453C222.924 16.4453 222.919 16.4453 222.914 16.4453C222.91 16.4453 222.905 16.4453 222.9 16.4453C222.895 16.4453 222.891 16.4453 222.886 16.4453C222.881 16.4453 222.877 16.4453 222.872 16.4453C222.867 16.4453 222.862 16.4453 222.858 16.4453C222.853 16.4453 222.848 16.4453 222.844 16.4453C222.839 16.4453 222.834 16.4453 222.83 16.4453C222.825 16.4453 222.82 16.4453 222.815 16.4453C222.811 16.4453 222.806 16.4453 222.801 16.4453C222.797 16.4453 222.792 16.4453 222.787 16.4453C222.783 16.4453 222.778 16.4453 222.773 16.4453C222.768 16.4453 222.764 16.4453 222.759 16.4453C222.754 16.4453 222.75 16.4453 222.745 16.4453C222.74 16.4453 222.735 16.4453 222.731 16.4453C222.726 16.4453 222.721 16.4453 222.717 16.4453C222.712 16.4453 222.707 16.4453 222.703 16.4453C222.698 16.4453 222.693 16.4453 222.688 16.4453C222.684 16.4453 222.679 16.4453 222.674 16.4453C222.67 16.4453 222.665 16.4453 222.66 16.4453C222.655 16.4453 222.651 16.4453 222.646 16.4453C222.641 16.4453 222.637 16.4453 222.632 16.4453C222.627 16.4453 222.623 16.4453 222.618 16.4453C222.613 16.4453 222.608 16.4453 222.604 16.4453C222.599 16.4453 222.594 16.4453 222.59 16.4453C222.585 16.4453 222.58 16.4453 222.576 16.4453C222.571 16.4453 222.566 16.4453 222.561 16.4453C222.557 16.4453 222.552 16.4453 222.547 16.4453C222.543 16.4453 222.538 16.4453 222.533 16.4453C222.528 16.4453 222.524 16.4453 222.519 16.4453C222.514 16.4453 222.51 16.4453 222.505 16.4453C222.5 16.4453 222.496 16.4453 222.491 16.4453C222.486 16.4453 222.481 16.4453 222.477 16.4453C222.472 16.4453 222.467 16.4453 222.463 16.4453C222.458 16.4453 222.453 16.4453 222.448 16.4453C222.444 16.4453 222.439 16.4453 222.434 16.4453C222.43 16.4453 222.425 16.4453 222.42 16.4453C222.416 16.4453 222.411 16.4453 222.406 16.4453C222.401 16.4453 222.397 16.4453 222.392 16.4453C222.387 16.4453 222.383 16.4453 222.378 16.4453C222.373 16.4453 222.368 16.4453 222.364 16.4453C222.359 16.4453 222.354 16.4453 222.35 16.4453C222.345 16.4453 222.34 16.4453 222.336 16.4453C222.331 16.4453 222.326 16.4453 222.321 16.4453C222.317 16.4453 222.312 16.4453 222.307 16.4453C222.303 16.4453 222.298 16.4453 222.293 16.4453C222.289 16.4453 222.284 16.4453 222.279 16.4453C222.274 16.4453 222.27 16.4453 222.265 16.4453C222.26 16.4453 222.256 16.4453 222.251 16.4453C222.246 16.4453 222.241 16.4453 222.237 16.4453C222.232 16.4453 222.227 16.4453 222.223 16.4453C222.218 16.4453 222.213 16.4453 222.209 16.4453C222.204 16.4453 222.199 16.4453 222.194 16.4453C222.19 16.4453 222.185 16.4453 222.18 16.4453C222.176 16.4453 222.171 16.4453 222.166 16.4453C222.161 16.4453 222.157 16.4453 222.152 16.4453C222.147 16.4453 222.143 16.4453 222.138 16.4453C222.133 16.4453 222.129 16.4453 222.124 16.4453C222.119 16.4453 222.114 16.4453 222.11 16.4453C222.105 16.4453 222.1 16.4453 222.096 16.4453C222.091 16.4453 222.086 16.4453 222.081 16.4453C222.077 16.4453 222.072 16.4453 222.067 16.4453C222.063 16.4453 222.058 16.4453 222.053 16.4453C222.049 16.4453 222.044 16.4453 222.039 16.4453C222.034 16.4453 222.03 16.4453 222.025 16.4453C222.02 16.4453 222.016 16.4453 222.011 16.4453C222.006 16.4453 222.002 16.4453 221.997 16.4453C221.992 16.4453 221.987 16.4453 221.983 16.4453C221.978 16.4453 221.973 16.4453 221.969 16.4453C221.964 16.4453 221.959 16.4453 221.954 16.4453C221.95 16.4453 221.945 16.4453 221.94 16.4453C221.936 16.4453 221.931 16.4453 221.926 16.4453C221.922 16.4453 221.917 16.4453 221.912 16.4453C221.907 16.4453 221.903 16.4453 221.898 16.4453C221.893 16.4453 221.889 16.4453 221.884 16.4453C221.879 16.4453 221.874 16.4453 221.87 16.4453C221.865 16.4453 221.86 16.4453 221.856 16.4453C221.851 16.4453 221.846 16.4453 221.842 16.4453C221.837 16.4453 221.832 16.4453 221.827 16.4453C221.823 16.4453 221.818 16.4453 221.813 16.4453C221.809 16.4453 221.804 16.4453 221.799 16.4453C221.795 16.4453 221.79 16.4453 221.785 16.4453C221.78 16.4453 221.776 16.4453 221.771 16.4453C221.766 16.4453 221.762 16.4453 221.757 16.4453C221.752 16.4453 221.747 16.4453 221.743 16.4453C221.738 16.4453 221.733 16.4453 221.729 16.4453C221.724 16.4453 221.719 16.4453 221.715 16.4453C221.71 16.4453 221.705 16.4453 221.7 16.4453C221.696 16.4453 221.691 16.4453 221.686 16.4453C221.682 16.4453 221.677 16.4453 221.672 16.4453C221.667 16.4453 221.663 16.4453 221.658 16.4453C221.653 16.4453 221.649 16.4453 221.644 16.4453C221.639 16.4453 221.635 16.4453 221.63 16.4453C221.625 16.4453 221.62 16.4453 221.616 16.4453C221.611 16.4453 221.606 16.4453 221.602 16.4453C221.597 16.4453 221.592 16.4453 221.587 16.4453C221.583 16.4453 221.578 16.4453 221.573 16.4453C221.569 16.4453 221.564 16.4453 221.559 16.4453C221.555 16.4453 221.55 16.4453 221.545 16.4453C221.54 16.4453 221.536 16.4453 221.531 16.4453C221.526 16.4453 221.522 16.4453 221.517 16.4453C221.512 16.4453 221.508 16.4453 221.503 16.4453C221.498 16.4453 221.493 16.4453 221.489 16.4453C221.484 16.4453 221.479 16.4453 221.475 16.4453C221.47 16.4453 221.465 16.4453 221.46 16.4453C221.456 16.4453 221.451 16.4453 221.446 16.4453C221.442 16.4453 221.437 16.4453 221.432 16.4453C221.428 16.4453 221.423 16.4453 221.418 16.4453C221.413 16.4453 221.409 16.4453 221.404 16.4453C221.399 16.4453 221.395 16.4453 221.39 16.4453C221.385 16.4453 221.38 16.4453 221.376 16.4453C221.371 16.4453 221.366 16.4453 221.362 16.4453C221.357 16.4453 221.352 16.4453 221.348 16.4453C221.343 16.4453 221.338 16.4453 221.333 16.4453C221.329 16.4453 221.324 16.4453 221.319 16.4453C221.315 16.4453 221.31 16.4453 221.305 16.4453C221.301 16.4453 221.296 16.4453 221.291 16.4453C221.286 16.4453 221.282 16.4453 221.277 16.4453C221.272 16.4453 221.268 16.4453 221.263 16.4453C221.258 16.4453 221.253 16.4453 221.249 16.4453C221.244 16.4453 221.239 16.4453 221.235 16.4453C221.23 16.4453 221.225 16.4453 221.221 16.4453C221.216 16.4453 221.211 16.4453 221.206 16.4453C221.202 16.4453 221.197 16.4453 221.192 16.4453C221.188 16.4453 221.183 16.4453 221.178 16.4453C221.173 16.4453 221.169 16.4453 221.164 16.4453V28.4453ZM237.106 41L231.791 38.2162L227.191 47H237.106V41ZM256.491 3.98828L261.806 6.77206L261.826 6.73515L261.844 6.69797L256.491 3.98828ZM260.178 1.35156L261.608 7.1786L261.62 7.17553L261.633 7.17242L260.178 1.35156ZM264.597 1.81543L261.953 7.20144L262.011 7.2301L262.07 7.25748L264.597 1.81543ZM266.745 3.8418L271.981 0.911012L271.977 0.904588L266.745 3.8418ZM287.546 41V47H297.781L292.781 38.0692L287.546 41ZM267.746 41L262.173 43.2223L263.679 47H267.746V41ZM266.208 37.1426L271.781 34.9203L270.275 31.1426H266.208V37.1426ZM255.661 37.1426V31.1426H251.371L249.984 35.2021L255.661 37.1426ZM254.343 41V47H258.633L260.02 42.9404L254.343 41ZM256.857 29.4033L251.274 27.2062L248.048 35.4033H256.857V29.4033ZM264.743 29.4033V35.4033H273.233L270.399 27.4002L264.743 29.4033ZM261.008 18.8564L266.664 16.8534L261.304 1.71949L255.425 16.6593L261.008 18.8564ZM242.422 43.7838L261.806 6.77206L251.176 1.2045L231.791 38.2162L242.422 43.7838ZM261.844 6.69797C261.795 6.79525 261.727 6.90082 261.639 7.00188C261.553 7.10247 261.468 7.17449 261.404 7.22055C261.278 7.31072 261.295 7.25542 261.608 7.1786L258.747 -4.47547C255.713 -3.73077 252.786 -1.97663 251.138 1.2786L261.844 6.69797ZM261.633 7.17242C261.564 7.18959 261.565 7.1837 261.655 7.17455C261.743 7.16562 261.89 7.15625 262.106 7.15625V-4.84375C261.04 -4.84375 259.873 -4.75695 258.723 -4.46929L261.633 7.17242ZM262.106 7.15625C261.912 7.15625 261.793 7.12809 261.767 7.12128C261.745 7.11529 261.805 7.12879 261.953 7.20144L267.241 -3.57058C265.763 -4.29597 264.023 -4.84375 262.106 -4.84375V7.15625ZM262.07 7.25748C261.954 7.20344 261.821 7.11787 261.701 7.00423C261.583 6.89299 261.526 6.80207 261.513 6.77901L271.977 0.904588C270.878 -1.05283 269.246 -2.64096 267.123 -3.62662L262.07 7.25748ZM261.51 6.77258L282.31 43.9308L292.781 38.0692L271.981 0.911015L261.51 6.77258ZM287.546 35H267.746V47H287.546V35ZM273.319 38.7777L271.781 34.9203L260.635 39.3648L262.173 43.2223L273.319 38.7777ZM266.208 31.1426H255.661V43.1426H266.208V31.1426ZM249.984 35.2021L248.665 39.0596L260.02 42.9404L261.339 39.083L249.984 35.2021ZM254.343 35H237.106V47H254.343V35ZM256.857 35.4033H264.743V23.4033H256.857V35.4033ZM270.399 27.4002L266.664 16.8534L255.352 20.8595L259.087 31.4064L270.399 27.4002ZM255.425 16.6593L251.274 27.2062L262.441 31.6004L266.591 21.0536L255.425 16.6593ZM291.257 2.01074V-3.98926H285.257V2.01074H291.257ZM296.848 2.01074L300.955 -2.36295L299.223 -3.98926H296.848V2.01074ZM315.695 19.7109L311.588 24.0846L315.641 27.8906L319.744 24.1392L315.695 19.7109ZM335.056 2.01074V-3.98926H332.726L331.007 -2.41751L335.056 2.01074ZM340.451 2.01074H346.451V-3.98926H340.451V2.01074ZM340.451 41V47H346.451V41H340.451ZM324.411 41H318.411V47H324.411V41ZM324.411 28.3535H330.411V12.8543L319.975 24.3135L324.411 28.3535ZM314.45 39.291L310.014 43.3306L314.45 48.2024L318.886 43.331L314.45 39.291ZM304.758 28.6465L309.194 24.6069L298.758 13.1452V28.6465H304.758ZM304.758 41V47H310.758V41H304.758ZM291.257 41H285.257V47H291.257V41ZM291.257 8.01074H296.848V-3.98926H291.257V8.01074ZM292.74 6.38443L311.588 24.0846L319.803 15.3372L300.955 -2.36295L292.74 6.38443ZM319.744 24.1392L339.104 6.43899L331.007 -2.41751L311.647 15.2827L319.744 24.1392ZM335.056 8.01074H340.451V-3.98926H335.056V8.01074ZM334.451 2.01074V41H346.451V2.01074H334.451ZM340.451 35H324.411V47H340.451V35ZM330.411 41V28.3535H318.411V41H330.411ZM319.975 24.3135L310.014 35.251L318.886 43.331L328.847 32.3935L319.975 24.3135ZM318.887 35.2514L309.194 24.6069L300.321 32.6861L310.014 43.3306L318.887 35.2514ZM298.758 28.6465V41H310.758V28.6465H298.758ZM304.758 35H291.257V47H304.758V35ZM297.257 41V2.01074H285.257V41H297.257ZM346.481 2.01074V-3.98926H340.481V2.01074H346.481ZM374.582 2.01074H380.582V-3.98926H374.582V2.01074ZM374.582 13.2412V19.2412H380.582V13.2412H374.582ZM361.667 13.2412V7.24121H355.667V13.2412H361.667ZM361.667 16.4395H355.667V22.4395H361.667V16.4395ZM374.533 16.4395H380.533V10.4395H374.533V16.4395ZM374.533 26.0098V32.0098H380.533V26.0098H374.533ZM361.667 26.0098V20.0098H355.667V26.0098H361.667ZM361.667 29.6963H355.667V35.6963H361.667V29.6963ZM375.437 29.6963H381.437V23.6963H375.437V29.6963ZM375.437 41V47H381.437V41H375.437ZM346.481 41H340.481V47H346.481V41ZM346.481 8.01074H374.582V-3.98926H346.481V8.01074ZM368.582 2.01074V13.2412H380.582V2.01074H368.582ZM374.582 7.24121H361.667V19.2412H374.582V7.24121ZM355.667 13.2412V16.4395H367.667V13.2412H355.667ZM361.667 22.4395H374.533V10.4395H361.667V22.4395ZM368.533 16.4395V26.0098H380.533V16.4395H368.533ZM374.533 20.0098H361.667V32.0098H374.533V20.0098ZM355.667 26.0098V29.6963H367.667V26.0098H355.667ZM361.667 35.6963H375.437V23.6963H361.667V35.6963ZM369.437 29.6963V41H381.437V29.6963H369.437ZM375.437 35H346.481V47H375.437V35ZM352.481 41V2.01074H340.481V41H352.481ZM395.236 41.9521V47.9521H395.246L395.256 47.9521L395.236 41.9521ZM380.686 39.2422H374.686V42.23L377.07 44.0304L380.686 39.2422ZM380.686 28.0605L382.141 22.2397L374.686 20.3759V28.0605H380.686ZM381.394 28.2803L379.565 33.9948L379.597 34.0051L379.629 34.0149L381.394 28.2803ZM382.98 28.7686L384.745 23.0339L382.98 28.7686ZM387.644 30.0625L386.188 35.8834L386.222 35.8919L386.256 35.9L387.644 30.0625ZM391.94 26.7178L395.088 21.6099L395.085 21.6078L391.94 26.7178ZM389.768 25.4971L386.955 30.7972L386.977 30.8089L386.999 30.8204L389.768 25.4971ZM387.326 24.0811L390.515 18.9987L390.494 18.9855L390.473 18.9725L387.326 24.0811ZM382.419 19.6865L377.569 23.2184L377.58 23.2337L377.591 23.2489L382.419 19.6865ZM389.426 2.08398L391.285 7.78857L391.288 7.78762L389.426 2.08398ZM407.541 1.98633L406.311 7.85881L406.312 7.85907L407.541 1.98633ZM408.933 2.30371H414.933V-2.2221L410.581 -3.46543L408.933 2.30371ZM408.933 13.5098L407.681 19.3778L414.933 20.9241V13.5098H408.933ZM397.629 14.3887L393.189 18.4247L393.236 18.4762L393.284 18.5266L397.629 14.3887ZM399.313 15.4385L396.856 20.9121L396.903 20.9331L396.95 20.9533L399.313 15.4385ZM402.097 16.708L399.514 22.1236L399.564 22.1474L399.614 22.1702L402.097 16.708ZM405.1 18.2949L401.96 23.4079L401.963 23.4097L405.1 18.2949ZM407.102 38.5098L410.837 43.2054L410.858 43.1885L410.879 43.1714L407.102 38.5098ZM395.236 35.9521C391.793 35.9521 389.151 35.7365 387.216 35.3761C385.185 34.9977 384.425 34.5477 384.301 34.4539L377.07 44.0304C379.338 45.7434 382.2 46.6483 385.019 47.1732C387.934 47.7161 391.372 47.9521 395.236 47.9521V35.9521ZM386.686 39.2422V28.0605H374.686V39.2422H386.686ZM379.23 33.8814C379.152 33.8619 379.096 33.846 379.084 33.8426C379.064 33.837 379.054 33.8338 379.057 33.8347C379.062 33.8363 379.085 33.8433 379.133 33.8581C379.226 33.8871 379.368 33.9318 379.565 33.9948L383.222 22.5657C382.937 22.4745 382.448 22.3165 382.141 22.2397L379.23 33.8814ZM379.629 34.0149C379.715 34.0415 380.204 34.1918 380.343 34.2347C380.467 34.2728 380.623 34.3206 380.76 34.3628C380.8 34.3753 380.829 34.3841 380.87 34.3968C380.899 34.4057 380.897 34.4051 380.926 34.4141C380.964 34.4256 380.917 34.4112 380.954 34.4228C380.956 34.4231 380.957 34.4235 380.958 34.4239C380.959 34.4242 380.96 34.4246 380.962 34.4249C380.963 34.4253 380.964 34.4257 380.965 34.426C380.966 34.4264 380.967 34.4268 380.969 34.4271C380.972 34.4281 380.98 34.4305 380.983 34.4315C380.988 34.4332 381.006 34.4386 381.011 34.4403C381.054 34.4534 380.998 34.4361 381.04 34.4492C381.041 34.4495 381.043 34.4499 381.044 34.4503C381.045 34.4506 381.046 34.451 381.047 34.4514C381.049 34.4519 381.053 34.4531 381.055 34.4536C381.056 34.454 381.057 34.4543 381.058 34.4547C381.059 34.4551 381.061 34.4554 381.062 34.4558C381.071 34.4586 381.06 34.4552 381.069 34.458C381.07 34.4584 381.083 34.4622 381.084 34.4625C381.086 34.4632 381.089 34.4641 381.091 34.4647C381.092 34.4651 381.097 34.4666 381.098 34.467C381.111 34.471 381.144 34.481 381.157 34.485C381.161 34.4864 381.211 34.5018 381.216 34.5032L384.745 23.0339C384.161 22.8541 384.404 22.9288 383.872 22.7653C383.865 22.7631 383.855 22.76 383.847 22.7577C383.846 22.7574 383.845 22.7571 383.844 22.7568C383.843 22.7565 383.842 22.7561 383.841 22.7558C383.84 22.7555 383.839 22.7552 383.838 22.7549C383.837 22.7546 383.836 22.7543 383.835 22.7539C383.832 22.7531 383.832 22.7529 383.829 22.752C383.828 22.7517 383.827 22.7514 383.826 22.7511C383.825 22.7508 383.824 22.7505 383.823 22.7502C383.79 22.7401 383.807 22.7452 383.774 22.7352C383.583 22.6764 383.917 22.7792 383.726 22.7204C383.681 22.7066 383.723 22.7196 383.679 22.7058C383.501 22.651 383.81 22.7461 383.632 22.6914C383.545 22.6646 383.696 22.7111 383.609 22.6843C383.608 22.684 383.607 22.6837 383.606 22.6834C383.605 22.6831 383.604 22.6828 383.603 22.6825C383.581 22.6758 383.619 22.6874 383.597 22.6807C383.587 22.6776 383.596 22.6803 383.586 22.6772C383.494 22.649 383.655 22.6984 383.563 22.6702C383.538 22.6624 383.565 22.6709 383.54 22.6632C383.51 22.6539 383.525 22.6586 383.495 22.6494C383.483 22.6456 383.497 22.6497 383.484 22.6459C383.48 22.6448 383.477 22.6437 383.473 22.6425C383.463 22.6395 383.472 22.6421 383.462 22.6391C383.439 22.632 383.48 22.6446 383.456 22.6374C383.456 22.6371 383.455 22.6369 383.454 22.6366C383.453 22.6363 383.452 22.636 383.451 22.6357C383.416 22.6248 383.481 22.6449 383.445 22.634C383.421 22.6265 383.464 22.6398 383.44 22.6323C383.435 22.6307 383.44 22.6323 383.435 22.6307C383.434 22.6304 383.433 22.6301 383.432 22.6298C383.431 22.6295 383.43 22.6293 383.429 22.629C383.418 22.6256 383.434 22.6307 383.424 22.6273C383.423 22.627 383.422 22.6267 383.421 22.6265C383.42 22.6262 383.419 22.6259 383.418 22.6256C383.415 22.6247 383.41 22.6232 383.407 22.6223C383.378 22.6134 383.393 22.6179 383.364 22.609C383.363 22.6087 383.362 22.6085 383.362 22.6082C383.361 22.6079 383.36 22.6076 383.359 22.6074C383.358 22.6071 383.357 22.6068 383.356 22.6066C383.355 22.6063 383.354 22.606 383.354 22.6057C383.353 22.6055 383.352 22.6052 383.351 22.6049C383.35 22.6046 383.349 22.6044 383.348 22.6041C383.347 22.6038 383.346 22.6036 383.346 22.6033C383.345 22.603 383.344 22.6027 383.343 22.6025C383.319 22.5952 383.356 22.6065 383.332 22.5992C383.304 22.5906 383.35 22.6046 383.322 22.596C383.138 22.5395 383.338 22.6011 383.158 22.5456L379.629 34.0149ZM381.216 34.5032C382.807 34.9929 384.465 35.4526 386.188 35.8834L389.099 24.2416C387.567 23.8586 386.116 23.4557 384.745 23.0339L381.216 34.5032ZM386.256 35.9C388.085 36.3346 389.925 36.6484 391.599 36.6484V24.6484C391.286 24.6484 390.489 24.5717 389.031 24.225L386.256 35.9ZM391.599 36.6484C392.827 36.6484 394.755 36.4961 396.554 35.3983C398.836 34.0068 400.04 31.6417 400.04 29.1592H388.04C388.04 28.5736 388.166 27.7691 388.622 26.9336C389.085 26.087 389.724 25.5086 390.305 25.1539C391.291 24.5526 391.998 24.6484 391.599 24.6484V36.6484ZM400.04 29.1592C400.04 26.8556 398.976 25.1229 398.064 24.0629C397.157 23.0085 396.066 22.2122 395.088 21.6099L388.793 31.8257C389.215 32.086 389.173 32.1279 388.966 31.8873C388.754 31.6411 388.04 30.6978 388.04 29.1592H400.04ZM395.085 21.6078C394.303 21.1267 393.45 20.649 392.536 20.1738L386.999 30.8204C387.713 31.1915 388.308 31.5276 388.796 31.8277L395.085 21.6078ZM392.58 20.197C391.921 19.8473 391.233 19.4489 390.515 18.9987L384.137 29.1634C385.08 29.7549 386.019 30.3005 386.955 30.7972L392.58 20.197ZM390.473 18.9725C388.998 18.0636 387.966 17.0983 387.247 16.1241L377.591 23.2489C379.346 25.6276 381.586 27.592 384.179 29.1896L390.473 18.9725ZM387.269 16.1547C386.955 15.7225 386.588 14.9245 386.588 13.3389H374.588C374.588 16.8639 375.442 20.2977 377.569 23.2184L387.269 16.1547ZM386.588 13.3389C386.588 11.6527 387.01 10.6891 387.516 10.0437C388.064 9.34567 389.135 8.4895 391.285 7.78857L387.566 -3.6206C383.825 -2.40096 380.476 -0.421028 378.078 2.63256C375.639 5.73876 374.588 9.44235 374.588 13.3389H386.588ZM391.288 7.78762C392.955 7.24351 395.063 6.91211 397.702 6.91211V-5.08789C394.091 -5.08789 390.682 -4.63804 387.563 -3.61965L391.288 7.78762ZM397.702 6.91211C400.387 6.91211 403.253 7.21817 406.311 7.85881L408.771 -3.88615C404.993 -4.6778 401.3 -5.08789 397.702 -5.08789V6.91211ZM406.312 7.85907C406.642 7.92822 406.895 7.98327 407.08 8.02532C407.289 8.073 407.332 8.08659 407.284 8.07285L410.581 -3.46543C410.11 -3.59986 409.434 -3.74752 408.77 -3.88642L406.312 7.85907ZM402.933 2.30371V13.5098H414.933V2.30371H402.933ZM410.184 7.64169C405.744 6.69496 402.016 6.09375 399.387 6.09375V18.0938C400.631 18.0938 403.267 18.4366 407.681 19.3778L410.184 7.64169ZM399.387 6.09375C398.127 6.09375 396.115 6.27933 394.276 7.55894L401.129 17.4098C400.549 17.8131 400.033 17.9729 399.759 18.0363C399.487 18.0996 399.341 18.0938 399.387 18.0938V6.09375ZM394.276 7.55894C392.987 8.45562 391.141 10.3545 391.141 13.3633H403.141C403.141 14.424 402.816 15.3801 402.337 16.1297C401.894 16.823 401.399 17.222 401.129 17.4098L394.276 7.55894ZM391.141 13.3633C391.141 15.7652 392.337 17.4878 393.189 18.4247L402.069 10.3526C402.269 10.5734 403.141 11.6124 403.141 13.3633H391.141ZM393.284 18.5266C394.426 19.7259 395.849 20.4601 396.856 20.9121L401.771 9.96486C401.663 9.91658 401.585 9.87803 401.532 9.85024C401.478 9.8221 401.459 9.80983 401.468 9.81534C401.475 9.82019 401.526 9.85226 401.607 9.91511C401.686 9.97685 401.817 10.0866 401.974 10.2507L393.284 18.5266ZM396.95 20.9533C397.653 21.2548 398.505 21.6425 399.514 22.1236L404.68 11.2924C403.572 10.7644 402.569 10.3058 401.677 9.92361L396.95 20.9533ZM399.614 22.1702C400.481 22.5642 401.261 22.9784 401.96 23.4079L408.239 13.1819C407.083 12.4721 405.861 11.8283 404.579 11.2458L399.614 22.1702ZM401.963 23.4097C404.572 25.01 405.35 26.6758 405.35 28.7686H417.35C417.35 22.0072 413.96 16.6906 408.236 13.1802L401.963 23.4097ZM405.35 28.7686C405.35 31.4671 404.527 32.8736 403.324 33.8482L410.879 43.1714C415.341 39.556 417.35 34.4685 417.35 28.7686H405.35ZM403.366 33.8142C401.895 34.9845 399.417 35.9386 395.217 35.9522L395.256 47.9521C401.147 47.9331 406.579 46.5923 410.837 43.2054L403.366 33.8142Z" fill="black"/>
</g>
<defs>
<filter id="filter0_d_39_2" x="0.0498047" y="0.912109" width="415.3" height="49.04" filterUnits="userSpaceOnUse" color-interpolation-filters="sRGB">
<feFlood flood-opacity="0" result="BackgroundImageFix"/>
<feColorMatrix in="SourceAlpha" type="matrix" values="0 0 0 0 0 0 0 0 0 0 0 0 0 0 0 0 0 0 127 0" result="hardAlpha"/>
<feOffset dy="4"/>
<feGaussianBlur stdDeviation="2"/>
<feComposite in2="hardAlpha" operator="out"/>
<feColorMatrix type="matrix" values="0 0 0 0 0 0 0 0 0 0 0 0 0 0 0 0 0 0 0.25 0"/>
<feBlend mode="normal" in2="BackgroundImageFix" result="effect1_dropShadow_39_2"/>
<feBlend mode="normal" in="SourceGraphic" in2="effect1_dropShadow_39_2" result="shape"/>
</filter>
</defs>
</svg>
